<?xml version="1.0" encoding="UTF-8"?>
<svg id="Layer_1" xmlns="http://www.w3.org/2000/svg" version="1.1" viewBox="0 0 850.39 850.39">
  <!-- Generator: Adobe Illustrator 30.4.0, SVG Export Plug-In . SVG Version: 2.1.4 Build 226)  -->
  <defs>
    <style>
      .st0 {
        fill: #8f8f8f;
      }
    </style>
  </defs>
  <path class="st0" d="M788.28,260.99c-22.84-24.58-53.26-40.88-86.14-46.25-2.99-57.08-27.17-110.33-68.43-150.47C591.09,22.82,534.97,0,475.68,0,399.29,0,326.72,39.63,285.18,103.72c-8.46-1.83-17.13-2.75-25.85-2.75-65.05,0-118.79,51.59-122.04,116-30.47,7.36-58.35,24.36-78.93,48.22-23.61,27.38-36.61,62.4-36.61,98.6,0,61.64,36.86,116.53,93.9,139.86,3.47,1.42,7.28,1.4,10.73-.05,3.45-1.45,6.14-4.16,7.55-7.62,1.42-3.47,1.4-7.28-.05-10.73-1.45-3.45-4.16-6.14-7.62-7.55-46.45-19-76.47-63.71-76.47-113.9,0-60.96,43.61-112.05,103.69-121.48,7.19-1.13,12.27-7.46,11.82-14.72-.08-1.25-.12-2.7-.12-4.43,0-51.92,42.24-94.16,94.16-94.16,9.61,0,19.08,1.45,28.14,4.29,6.3,1.98,13.01-.62,16.32-6.32,35.52-61.03,101.38-98.94,171.89-98.94,109.58,0,198.73,89.15,198.73,198.73v.43c0,7.27,5.68,13.41,12.93,13.98,63.52,4.93,113.27,58.79,113.27,122.61,0,67.83-55.18,123-123,123h-237.39c-7.73,0-14.02,6.29-14.02,14.02s6.29,14.02,14.02,14.02h237.39c83.29,0,151.04-67.76,151.04-151.04,0-38.27-14.34-74.78-40.38-102.8Z"/>
  <path class="st0" d="M498.45,558.73c-3.31-1.75-7.11-2.11-10.69-1-3.58,1.11-6.51,3.54-8.26,6.85l-68.51,129.81c-3.61,6.84-.98,15.34,5.85,18.94,2.01,1.06,4.27,1.62,6.54,1.62,5.22,0,9.97-2.86,12.41-7.48l68.51-129.81c3.61-6.84.98-15.34-5.85-18.94Z"/>
  <path class="st0" d="M556.15,688.54c-3.31-1.75-7.11-2.1-10.69-1-3.58,1.11-6.51,3.54-8.26,6.85l-68.51,129.81c-3.61,6.84-.98,15.33,5.86,18.94,2.01,1.06,4.27,1.62,6.54,1.62,5.22,0,9.97-2.87,12.41-7.48l68.51-129.81c3.61-6.84.98-15.33-5.85-18.94Z"/>
  <path class="st0" d="M718.41,569.55c-3.31-1.75-7.11-2.1-10.69-1-3.58,1.11-6.51,3.54-8.26,6.85l-68.51,129.81c-3.61,6.84-.98,15.33,5.85,18.94,2.01,1.06,4.27,1.62,6.54,1.62,5.22,0,9.97-2.86,12.41-7.48l68.51-129.81c3.61-6.84.98-15.33-5.85-18.94Z"/>
  <path class="st0" d="M418.71,545.13c-2.29-4.94-7.28-8.13-12.73-8.13h-80.46l112.35-184.14c2.64-4.32,2.74-9.75.26-14.16-2.48-4.42-7.16-7.16-12.23-7.16h-140.08c-5.04,0-9.72,2.73-12.21,7.12l-148.39,262.54c-2.44,4.32-2.4,9.67.1,13.96,2.5,4.29,7.14,6.95,12.11,6.95h104.15l-91.06,208.66c-2.76,6.32-.43,13.85,5.43,17.5,2.23,1.39,4.79,2.13,7.42,2.13h0c4.12,0,8.01-1.8,10.68-4.94l242.61-285.36c3.53-4.15,4.33-10.02,2.04-14.97ZM275.85,613.69c1.9-4.35,1.48-9.32-1.12-13.29-2.6-3.97-6.98-6.34-11.73-6.34h-101.53l132.54-234.5h106.92l-112.35,184.14c-2.64,4.32-2.74,9.75-.26,14.16,2.48,4.42,7.16,7.16,12.23,7.16h75.11l-161.46,189.91,61.64-141.25Z"/>
</svg>