<?xml version="1.0" encoding="UTF-8"?>
<svg id="Layer_1" xmlns="http://www.w3.org/2000/svg" version="1.1" viewBox="0 0 850.39 850.39">
  <!-- Generator: Adobe Illustrator 30.4.0, SVG Export Plug-In . SVG Version: 2.1.4 Build 226)  -->
  <defs>
    <style>
      .st0 {
        fill: #8f8f8f;
      }
    </style>
  </defs>
  <path class="st0" d="M796.95,267.22c-23.39-25.17-54.53-41.85-88.2-47.36-3.06-58.44-27.82-112.97-70.07-154.06C595.05,23.37,537.59,0,476.88,0,398.67,0,324.36,40.57,281.84,106.19c-8.66-1.87-17.54-2.82-26.47-2.82-66.61,0-121.63,52.82-124.95,118.77-31.2,7.54-59.75,24.94-80.82,49.37-24.17,28.03-37.49,63.89-37.49,100.96,0,85.27,69.38,154.65,154.65,154.65h37.54c7.92,0,14.35-6.44,14.35-14.35s-6.44-14.36-14.35-14.36h-37.54c-69.45,0-125.94-56.5-125.94-125.94,0-62.42,44.65-114.73,106.16-124.38,7.36-1.16,12.57-7.64,12.1-15.08-.08-1.28-.12-2.76-.12-4.53,0-53.16,43.25-96.41,96.4-96.41,9.84,0,19.53,1.48,28.81,4.4,6.45,2.03,13.32-.63,16.71-6.47,36.37-62.48,103.81-101.3,176-101.3,112.2,0,203.47,91.28,203.47,203.47v.44c0,7.45,5.82,13.73,13.24,14.31,65.03,5.05,115.98,60.19,115.98,125.54,0,69.44-56.5,125.94-125.94,125.94h-96.61c-7.92,0-14.36,6.44-14.36,14.36s6.44,14.35,14.36,14.35h96.61c85.27,0,154.65-69.38,154.65-154.65,0-39.19-14.68-76.57-41.34-105.26Z"/>
  <path class="st0" d="M540.38,319.14h-143.43c-5.16,0-9.95,2.79-12.5,7.29l-151.93,268.81c-2.5,4.43-2.46,9.91.1,14.3,2.56,4.39,7.31,7.12,12.4,7.12h106.63l-93.23,213.64c-2.83,6.48-.44,14.18,5.56,17.92,2.28,1.42,4.91,2.18,7.59,2.18h0c4.22,0,8.21-1.84,10.94-5.06l248.4-292.18c3.61-4.25,4.43-10.26,2.09-15.32-2.34-5.06-7.45-8.33-13.03-8.33h-82.38l115.03-188.54c2.7-4.42,2.8-9.98.26-14.5-2.54-4.52-7.33-7.33-12.52-7.33ZM399.77,536.39c-2.7,4.43-2.8,9.98-.26,14.5,2.54,4.52,7.33,7.33,12.52,7.33h76.91l-165.31,194.44,63.11-144.62c1.94-4.45,1.52-9.54-1.15-13.6-2.66-4.07-7.15-6.49-12.01-6.49h-103.96l135.71-240.09h109.48l-115.03,188.54Z"/>
</svg>