<?xml version="1.0" encoding="UTF-8"?>
<svg id="Layer_1" xmlns="http://www.w3.org/2000/svg" version="1.1" viewBox="0 0 850.39 850.39">
  <!-- Generator: Adobe Illustrator 30.4.0, SVG Export Plug-In . SVG Version: 2.1.4 Build 226)  -->
  <defs>
    <style>
      .st0 {
        fill: #8f8f8f;
      }
    </style>
  </defs>
  <path class="st0" d="M846.82,293.6c-3.68-4.3-9.38-6.1-14.87-4.7-16.51,4.21-33.59,6.35-50.76,6.35-112.58,0-204.16-91.6-204.16-204.19,0-17.17,2.14-34.25,6.35-50.77,1.4-5.49-.4-11.19-4.7-14.87s-10.2-4.59-15.42-2.37c-48.19,20.58-87.95,58.74-110.75,105.78-22.55-9.13-46.85-13.91-71.79-13.91-63.79,0-124.63,32.81-159.91,85.92-6.58-1.28-13.31-1.93-20.06-1.93-27.5,0-53.49,10.61-73.2,29.88-18.45,18.05-29.45,41.77-31.28,67.26-25.09,6.55-48.03,20.82-65.05,40.55C11.08,359.94,0,389.79,0,420.65c0,52.55,31.42,99.34,80.04,119.22,3.65,1.5,7.67,1.48,11.31-.05,3.64-1.53,6.47-4.38,7.96-8.03s1.48-7.67-.05-11.31c-1.53-3.64-4.38-6.47-8.03-7.96-37.47-15.32-61.67-51.38-61.67-91.87,0-49.17,35.17-90.37,83.62-97.98,7.58-1.19,12.94-7.86,12.45-15.53-.06-.97-.09-2.1-.09-3.48,0-41.47,33.74-75.21,75.21-75.21,7.68,0,15.24,1.15,22.47,3.43,6.63,2.09,13.71-.65,17.2-6.66,28.99-49.81,82.75-80.75,140.3-80.75,89.44,0,162.2,72.76,162.2,162.2v.36c0,7.67,5.99,14.14,13.63,14.73,51.23,3.98,91.35,47.41,91.35,98.89,0,54.7-44.5,99.21-99.21,99.21h-197.47c-8.15,0-14.77,6.63-14.77,14.77s6.63,14.78,14.77,14.78h197.47c64.53,0,118.12-47.73,127.34-109.73,76.71-9.57,142.57-59.02,173.16-130.66,2.23-5.21,1.32-11.12-2.37-15.42h0ZM643.02,333.02c-18.87-20.31-43.91-34.03-70.98-39-3.11-47.57-23.66-91.87-58.23-125.25-10.69-10.32-22.39-19.26-34.86-26.73,15.43-32.08,39.8-59.32,70.1-78.3-1.05,9.06-1.59,18.21-1.59,27.32,0,128.89,104.84,233.74,233.71,233.74,9.15,0,18.32-.54,27.41-1.6-29.15,46.9-77.01,78.37-131.63,86.53-2.41-28.6-14.23-55.51-33.94-76.71h.01Z"/>
  <path class="st0" d="M404.11,589.06c-7.2-3.8-16.16-1.03-19.96,6.17l-56.99,107.98c-3.8,7.21-1.04,16.16,6.17,19.97,2.12,1.12,4.5,1.71,6.89,1.71,5.5,0,10.51-3.02,13.07-7.88l56.99-107.98c3.8-7.2,1.03-16.16-6.17-19.96h0Z"/>
  <path class="st0" d="M494.09,589.06c-7.2-3.8-16.16-1.03-19.96,6.17l-56.99,107.98c-3.8,7.21-1.03,16.16,6.17,19.97,2.12,1.12,4.5,1.71,6.89,1.71,5.5,0,10.51-3.02,13.07-7.88l56.99-107.98c3.8-7.2,1.03-16.16-6.17-19.96h0Z"/>
  <path class="st0" d="M584.08,589.06c-7.2-3.8-16.16-1.03-19.96,6.17l-56.99,107.98c-3.8,7.21-1.03,16.16,6.17,19.97,2.12,1.12,4.5,1.71,6.89,1.71,5.5,0,10.51-3.02,13.07-7.88l56.99-107.98c3.8-7.2,1.03-16.16-6.17-19.96h0Z"/>
  <path class="st0" d="M336.15,570.18c-2.41-5.21-7.67-8.57-13.41-8.57h-61.38l90.57-148.44c2.78-4.55,2.88-10.27.27-14.93-2.61-4.65-7.55-7.54-12.88-7.54h-116.52c-5.32,0-10.25,2.87-12.86,7.5l-123.44,218.39c-2.57,4.56-2.54,10.2.1,14.71,2.64,4.52,7.53,7.33,12.76,7.33h81.88l-73.84,169.22c-2.91,6.66-.45,14.59,5.72,18.44,2.35,1.47,5.05,2.24,7.82,2.24,4.34,0,8.45-1.9,11.26-5.21l201.81-237.38c3.72-4.37,4.56-10.56,2.15-15.77h-.01ZM217.34,629.77c2-4.58,1.56-9.82-1.18-14-2.74-4.19-7.36-6.68-12.36-6.68h-79.12l106.73-188.84h81.58l-90.57,148.44c-2.78,4.55-2.88,10.27-.27,14.93,2.61,4.65,7.55,7.54,12.88,7.54h55.75l-116.28,136.78,42.84-98.17h0Z"/>
</svg>