<?xml version="1.0" encoding="UTF-8"?>
<svg id="Layer_1" xmlns="http://www.w3.org/2000/svg" version="1.1" viewBox="0 0 850.39 850.39">
  <!-- Generator: Adobe Illustrator 30.4.0, SVG Export Plug-In . SVG Version: 2.1.4 Build 226)  -->
  <defs>
    <style>
      .st0 {
        fill: #8f8f8f;
      }
    </style>
  </defs>
  <path class="st0" d="M846.82,297.23c-3.68-4.3-9.38-6.1-14.87-4.7-16.64,4.25-33.86,6.4-51.17,6.4-113.46,0-205.77-92.32-205.77-205.8,0-17.3,2.15-34.52,6.4-51.16,1.4-5.49-.4-11.19-4.7-14.87s-10.2-4.59-15.42-2.37c-50.08,21.39-91.1,61.61-113.65,111.07-20.4-7.2-42.06-10.96-64.23-10.96-64.25,0-125.52,33.05-161.04,86.56-6.65-1.3-13.44-1.96-20.26-1.96-27.68,0-53.85,10.69-73.68,30.09-18.58,18.18-29.64,42.07-31.47,67.74-25.28,6.58-48.4,20.95-65.55,40.83C11.16,371.59,0,401.64,0,432.7c0,71.46,58.14,129.6,129.6,129.6h30.72c8.15,0,14.78-6.63,14.78-14.78s-6.63-14.78-14.78-14.78h-30.72c-55.17,0-100.05-44.88-100.05-100.05,0-49.58,35.47-91.14,84.33-98.8,7.58-1.19,12.94-7.86,12.46-15.52-.06-.98-.09-2.13-.09-3.52,0-41.84,34.04-75.87,75.87-75.87,7.74,0,15.37,1.16,22.67,3.46,6.63,2.09,13.71-.65,17.21-6.66,29.22-50.21,83.41-81.4,141.42-81.4,90.15,0,163.5,73.35,163.5,163.5v.36c0,7.67,5.99,14.14,13.63,14.73,51.66,4.01,92.12,47.81,92.12,99.73,0,55.17-44.88,100.05-100.05,100.05h-79.06c-8.15,0-14.78,6.63-14.78,14.78s6.63,14.78,14.78,14.78h79.06c67.91,0,123.75-52.52,129.13-119.07,74.06-11.69,137.82-61.21,167.44-130.58,2.23-5.21,1.32-11.11-2.37-15.42h0ZM647.57,344.5c-19.01-20.46-44.24-34.28-71.52-39.27-3.11-47.92-23.8-92.54-58.61-126.17-12.94-12.5-27.34-22.98-42.79-31.3,15.47-33.86,40.76-62.57,72.44-82.37-1.08,9.2-1.62,18.48-1.62,27.74,0,129.77,105.57,235.35,235.33,235.35,9.27,0,18.56-.55,27.77-1.63-28.44,45.63-74.96,77.19-127.79,86.58-3.84-25.68-15.28-49.65-33.2-68.93h-.01Z"/>
  <path class="st0" d="M435.37,386.03h-117.38c-5.32,0-10.25,2.87-12.86,7.5l-124.34,220c-2.58,4.56-2.54,10.2.1,14.72,2.64,4.52,7.53,7.33,12.76,7.33h82.65l-74.45,170.61c-2.91,6.66-.45,14.59,5.71,18.44,2.35,1.47,5.05,2.24,7.82,2.24,4.34,0,8.45-1.9,11.26-5.2l203.3-239.12c3.72-4.37,4.56-10.56,2.15-15.77s-7.67-8.57-13.41-8.57h-62.03l91.33-149.7c2.78-4.56,2.88-10.28.27-14.93-2.61-4.65-7.55-7.54-12.88-7.54h0ZM312.4,626.71c2-4.58,1.56-9.82-1.18-14-2.74-4.19-7.36-6.68-12.36-6.68h-79.89l107.64-190.44h82.44l-91.33,149.7c-2.78,4.56-2.88,10.28-.27,14.93,2.61,4.65,7.55,7.54,12.88,7.54h56.39l-117.77,138.52,43.45-99.56h0Z"/>
</svg>