<?xml version="1.0" encoding="UTF-8"?>
<svg id="Layer_1" xmlns="http://www.w3.org/2000/svg" version="1.1" viewBox="0 0 850.39 850.39">
  <!-- Generator: Adobe Illustrator 30.4.0, SVG Export Plug-In . SVG Version: 2.1.4 Build 226)  -->
  <defs>
    <style>
      .st0 {
        fill: #8f8f8f;
      }
    </style>
  </defs>
  <path class="st0" d="M846.82,331.89c-3.69-4.3-9.39-6.1-14.87-4.7-17.02,4.34-34.61,6.54-52.3,6.54-115.98,0-210.33-94.37-210.33-210.36,0-17.69,2.2-35.28,6.54-52.3,1.4-5.49-.4-11.19-4.7-14.87-4.3-3.69-10.21-4.59-15.42-2.37-61.28,26.17-108.21,79.22-126.86,142.86-12.36-2.41-25.02-3.65-37.86-3.65-65.55,0-128.04,33.75-164.22,88.38-6.83-1.35-13.81-2.03-20.82-2.03-28.2,0-54.85,10.89-75.04,30.67-18.94,18.55-30.19,42.93-32,69.12-25.83,6.68-49.45,21.33-66.96,41.63C11.36,444.74,0,475.33,0,506.97,0,579.74,59.2,638.94,131.97,638.94h431.76c72.77,0,131.97-59.2,131.97-131.97,0-9.93-1.13-19.71-3.28-29.22,70.13-15.62,128.32-63.83,156.77-130.45,2.22-5.21,1.32-11.12-2.37-15.42ZM563.73,609.39H131.97c-56.47,0-102.42-45.95-102.42-102.42,0-50.76,36.31-93.3,86.33-101.15,7.58-1.19,12.94-7.86,12.46-15.52-.06-1.02-.09-2.2-.09-3.61,0-42.87,34.88-77.75,77.75-77.75,7.94,0,15.75,1.19,23.23,3.54,6.63,2.1,13.71-.65,17.21-6.66,29.88-51.34,85.29-83.23,144.61-83.23,92.18,0,167.18,75,167.18,167.18v.37c0,7.67,5.99,14.14,13.63,14.73,52.88,4.11,94.31,48.95,94.31,102.09,0,56.47-45.94,102.42-102.42,102.42ZM660.42,417.15c-19.42-20.9-45.2-34.98-73.07-40.03-3.12-48.9-24.19-94.45-59.7-128.76-20.38-19.7-44.32-34.5-70.29-43.82,13.48-45.66,43.55-84.94,84.13-110.09-1.15,9.59-1.73,19.27-1.73,28.92,0,132.29,107.61,239.91,239.88,239.91,9.68,0,19.38-.58,29-1.74-28.07,45.68-73.22,77.34-126.05,88.11-5.68-11.76-13.1-22.73-22.18-32.5Z"/>
  <path class="st0" d="M208.25,658.9c-7.2-3.8-16.16-1.03-19.96,6.17l-58.6,111.02c-3.8,7.21-1.03,16.16,6.17,19.96,2.12,1.12,4.5,1.71,6.89,1.71,5.5,0,10.51-3.02,13.07-7.88l58.6-111.03c3.8-7.2,1.03-16.16-6.17-19.96Z"/>
  <path class="st0" d="M300.77,658.9c-7.2-3.8-16.16-1.03-19.96,6.17l-58.6,111.02c-3.8,7.21-1.03,16.16,6.17,19.96,2.12,1.12,4.5,1.71,6.89,1.71,5.5,0,10.51-3.02,13.07-7.88l58.6-111.03c3.8-7.2,1.03-16.16-6.17-19.96Z"/>
  <path class="st0" d="M393.29,658.9c-7.2-3.8-16.16-1.03-19.96,6.17l-58.6,111.02c-3.8,7.21-1.03,16.16,6.17,19.96,2.12,1.12,4.5,1.71,6.89,1.71,5.5,0,10.51-3.02,13.07-7.88l58.6-111.03c3.8-7.2,1.03-16.16-6.17-19.96Z"/>
  <path class="st0" d="M485.81,658.9c-7.2-3.8-16.16-1.03-19.96,6.17l-58.6,111.02c-3.8,7.21-1.03,16.16,6.17,19.96,2.12,1.12,4.5,1.71,6.89,1.71,5.5,0,10.51-3.02,13.07-7.88l58.6-111.03c3.8-7.2,1.03-16.16-6.17-19.96Z"/>
</svg>