<?xml version="1.0" encoding="UTF-8"?>
<svg id="Layer_1" xmlns="http://www.w3.org/2000/svg" version="1.1" viewBox="0 0 850.39 850.39">
  <!-- Generator: Adobe Illustrator 30.4.0, SVG Export Plug-In . SVG Version: 2.1.4 Build 226)  -->
  <defs>
    <style>
      .st0 {
        fill: #8f8f8f;
      }
    </style>
  </defs>
  <path class="st0" d="M817.96,432.27c-17.61-18.95-40.93-31.82-66.15-36.61-3.09-44.5-22.44-85.92-54.83-117.12-33.78-32.54-78.16-50.46-124.95-50.46-59.71,0-116.73,30.62-149.94,80.22-6.01-1.13-12.15-1.7-18.31-1.7-25.88,0-50.37,9.97-68.96,28.07-14.87,14.48-24.62,32.87-28.29,52.87-43.9-63.47-67.04-137.65-67.04-215.47,0-31.9,3.97-63.65,11.8-94.35,1.4-5.49-.4-11.18-4.7-14.87-4.3-3.68-10.21-4.59-15.42-2.37C90.75,120.44,0,257.88,0,410.61c0,101.63,39.58,197.18,111.45,269.05,71.87,71.88,167.43,111.46,269.07,111.46,60.82,0,121.31-14.7,174.93-42.5,51.54-26.73,96.99-65.6,131.53-112.45h42.08c66.9,0,121.33-54.43,121.33-121.33,0-30.74-11.52-60.07-32.43-82.58h0ZM729.06,606.63h-392.57c-50.61,0-91.78-41.17-91.78-91.78,0-45.49,32.53-83.61,77.36-90.64,7.58-1.19,12.94-7.87,12.46-15.53-.06-.89-.08-1.94-.08-3.19,0-38.24,31.11-69.35,69.35-69.35,7.08,0,14.05,1.06,20.72,3.16,6.63,2.09,13.71-.65,17.2-6.66,26.93-46.27,76.87-75.01,130.32-75.01,83.08,0,150.67,67.59,150.67,150.67v.34c0,7.67,5.99,14.14,13.63,14.73,47.39,3.68,84.51,43.87,84.51,91.49,0,50.61-41.17,91.78-91.78,91.78h-.01ZM283.29,405.84c-14.7,7.2-27.98,17.34-38.72,29.8-18.97,21.99-29.41,50.12-29.41,79.21,0,66.9,54.43,121.33,121.33,121.33h312.87c-66.38,78.9-165.2,125.4-268.85,125.4-193.53,0-350.97-157.44-350.97-350.97,0-66.36,18.62-131.04,53.84-187.04,32.77-52.11,78.52-94.5,132.84-123.25-4.17,23.62-6.28,47.69-6.28,71.74,0,84.49,25.32,165.02,73.34,233.78h.01Z"/>
</svg>