<?xml version="1.0" encoding="UTF-8"?>
<svg id="Layer_1" xmlns="http://www.w3.org/2000/svg" version="1.1" viewBox="0 0 850.39 850.39">
  <!-- Generator: Adobe Illustrator 30.4.0, SVG Export Plug-In . SVG Version: 2.1.4 Build 226)  -->
  <defs>
    <style>
      .st0 {
        fill: #8f8f8f;
      }
    </style>
  </defs>
  <path class="st0" d="M846.83,293.17c-3.68-4.3-9.38-6.1-14.87-4.71-16.48,4.21-33.52,6.34-50.66,6.34-112.36,0-203.76-91.42-203.76-203.79,0-17.14,2.13-34.18,6.34-50.66,1.4-5.49-.4-11.19-4.7-14.87s-10.21-4.59-15.42-2.37c-53.53,22.86-95.67,66.32-116.95,120.15-21.11-7.87-43.65-11.98-66.74-11.98-63.68,0-124.41,32.74-159.63,85.75-6.57-1.28-13.28-1.92-20.01-1.92-27.45,0-53.41,10.6-73.08,29.83-18.42,18.01-29.4,41.69-31.24,67.14-25.04,6.54-47.94,20.78-64.92,40.47C11.07,375.85,0,405.65,0,436.47c0,20.38,4.63,39.88,13.77,57.95,1.78,3.52,4.83,6.14,8.58,7.37,3.75,1.23,7.75.93,11.28-.85,3.52-1.78,6.14-4.83,7.37-8.58s.93-7.75-.85-11.27c-7.03-13.9-10.59-28.91-10.59-44.62,0-49.06,35.09-90.18,83.44-97.77,7.58-1.19,12.93-7.86,12.46-15.52-.06-.97-.09-2.11-.09-3.48,0-41.38,33.66-75.05,75.04-75.05,7.66,0,15.21,1.15,22.42,3.42,6.63,2.09,13.71-.65,17.21-6.66,28.93-49.71,82.58-80.59,140.02-80.59,89.26,0,161.87,72.62,161.87,161.87v.36c0,7.67,5.99,14.14,13.63,14.73,51.12,3.97,91.16,47.32,91.16,98.68,0,54.59-44.41,99-99,99h-222.56c-8.15,0-14.78,6.63-14.78,14.78s6.63,14.77,14.78,14.77h222.56c70.02,0,127.11-56.29,128.48-125.99,76.64-9.52,142.42-58.85,173-130.45,2.23-5.21,1.32-11.12-2.37-15.42v.02ZM673.41,409.59c-4.79-22.52-15.55-43.45-31.51-60.62-18.83-20.27-43.82-33.96-70.84-38.93-3.11-47.48-23.63-91.7-58.13-125.02-11.95-11.54-25.15-21.34-39.28-29.29,14.68-38.24,41.21-70.36,75.91-92-1.05,9.04-1.58,18.17-1.58,27.27,0,128.66,104.66,233.34,233.31,233.34,9.11,0,18.25-.53,27.31-1.59-29.77,47.89-79.08,79.62-135.19,86.83h0Z"/>
  <path class="st0" d="M398.92,585.08c-7.2-3.8-16.16-1.03-19.96,6.17l-56.89,107.79c-3.8,7.2-1.03,16.16,6.17,19.96,2.12,1.12,4.5,1.71,6.89,1.71,5.5,0,10.51-3.02,13.07-7.88l56.89-107.79c3.8-7.2,1.03-16.16-6.17-19.96Z"/>
  <path class="st0" d="M446.82,692.86c-7.21-3.8-16.16-1.03-19.96,6.17l-56.89,107.78c-3.8,7.21-1.03,16.16,6.17,19.96,2.12,1.12,4.5,1.71,6.89,1.71,5.5,0,10.51-3.02,13.07-7.88l56.89-107.78c3.8-7.21,1.03-16.16-6.17-19.97h0Z"/>
  <path class="st0" d="M581.55,594.06c-7.2-3.79-16.16-1.03-19.96,6.17l-56.89,107.78c-3.8,7.21-1.04,16.16,6.17,19.97,2.12,1.12,4.5,1.71,6.89,1.71,5.5,0,10.51-3.02,13.07-7.88l56.89-107.78c3.8-7.21,1.04-16.16-6.17-19.97h0Z"/>
  <path class="st0" d="M232.7,450.23c-36.98,0-67.06,30.08-67.06,67.06,0,8.15,6.63,14.78,14.77,14.78s14.78-6.63,14.78-14.78c0-20.68,16.83-37.51,37.51-37.51s37.51,16.83,37.51,37.51-16.83,37.51-37.51,37.51H15.52c-8.15,0-14.78,6.63-14.78,14.78s6.63,14.77,14.78,14.77h218.52c.45,0,.9-.03,1.35-.07,35.73-1.42,64.37-30.92,64.37-66.99s-30.08-67.06-67.06-67.06h0Z"/>
  <path class="st0" d="M119.19,519.07H15.52c-8.15,0-14.78,6.63-14.78,14.78s6.63,14.78,14.78,14.78h104.44c.26,0,.52-.03.78-.04,24.19-.83,43.61-20.75,43.61-45.13s-20.26-45.17-45.17-45.17-45.17,20.27-45.17,45.17c0,8.15,6.63,14.78,14.78,14.78s14.77-6.63,14.77-14.78c0-8.61,7.01-15.62,15.62-15.62s15.62,7.01,15.62,15.62-7.01,15.62-15.62,15.62h0Z"/>
  <path class="st0" d="M233.72,592.4c-.32-.02-.63-.05-.96-.05H16.86c-8.15,0-14.78,6.63-14.78,14.77s6.63,14.78,14.78,14.78h214.95c12.3,0,22.31,10.01,22.31,22.31s-10.01,22.31-22.31,22.31-22.31-10.01-22.31-22.31c0-8.15-6.63-14.78-14.78-14.78s-14.77,6.63-14.77,14.78c0,28.6,23.26,51.86,51.86,51.86s51.86-23.26,51.86-51.86-22.24-50.8-49.95-51.81h0Z"/>
</svg>