<?xml version="1.0" encoding="UTF-8"?>
<svg id="Layer_1" xmlns="http://www.w3.org/2000/svg" version="1.1" viewBox="0 0 850.39 850.39">
  <!-- Generator: Adobe Illustrator 30.4.0, SVG Export Plug-In . SVG Version: 2.1.4 Build 226)  -->
  <defs>
    <style>
      .st0 {
        fill: #8f8f8f;
      }
    </style>
  </defs>
  <path class="st0" d="M846.83,342.56c-3.68-4.29-9.38-6.1-14.87-4.7-16.48,4.21-33.53,6.34-50.66,6.34-112.36,0-203.76-91.42-203.76-203.79,0-17.13,2.13-34.18,6.34-50.67,1.4-5.49-.4-11.18-4.7-14.87-4.3-3.68-10.21-4.59-15.42-2.37-51.62,22.04-92.94,63.58-114.83,114.97-21.72-8.39-44.99-12.79-68.86-12.79-63.68,0-124.41,32.74-159.63,85.75-6.57-1.28-13.28-1.92-20.01-1.92-27.45,0-53.41,10.59-73.08,29.83-18.42,18.01-29.4,41.69-31.24,67.14-25.04,6.54-47.94,20.78-64.92,40.47C11.07,419.26,0,449.07,0,479.88c0,20.38,4.63,39.87,13.77,57.95,1.78,3.52,4.83,6.14,8.58,7.37,3.76,1.23,7.76.93,11.27-.85,3.52-1.78,6.14-4.83,7.37-8.58s.93-7.75-.85-11.28c-7.03-13.9-10.59-28.91-10.59-44.62,0-49.06,35.09-90.18,83.44-97.77,7.57-1.19,12.93-7.85,12.46-15.5-.06-1-.09-2.15-.09-3.5,0-41.38,33.67-75.05,75.05-75.05,7.66,0,15.2,1.15,22.42,3.42,6.63,2.09,13.71-.65,17.2-6.66,28.93-49.71,82.59-80.59,140.02-80.59,89.26,0,161.87,72.62,161.87,161.87v.36c0,7.67,5.99,14.14,13.63,14.73,51.12,3.97,91.16,47.31,91.16,98.68,0,54.59-44.41,99-99,99h-222.56c-8.15,0-14.78,6.63-14.78,14.77s6.63,14.78,14.78,14.78h222.56c68,0,123.8-53.08,128.23-119.98,76.77-9.43,142.61-58.72,173.25-130.47,2.22-5.21,1.32-11.12-2.37-15.42v.02ZM641.9,392.39c-18.84-20.27-43.82-33.96-70.84-38.93-3.11-47.48-23.63-91.7-58.13-125.02-11.4-11-23.93-20.43-37.33-28.19,15.02-36.03,40.82-66.4,73.96-87.1-1.05,9.04-1.58,18.16-1.58,27.26,0,128.66,104.66,233.34,233.31,233.34,9.11,0,18.26-.53,27.31-1.59-29.59,47.61-78.42,79.22-134.09,86.7-4.08-24.75-15.28-47.82-32.61-66.47h0Z"/>
  <path class="st0" d="M398.92,643.46c-3.49-1.84-7.49-2.21-11.26-1.05-3.77,1.16-6.86,3.73-8.7,7.22l-56.89,107.79c-1.84,3.49-2.22,7.49-1.05,11.26s3.73,6.86,7.22,8.71c2.12,1.12,4.5,1.71,6.89,1.71,5.5,0,10.51-3.02,13.07-7.88l56.89-107.78c3.8-7.21,1.03-16.16-6.17-19.96v-.02Z"/>
  <path class="st0" d="M488.74,643.46c-7.2-3.8-16.16-1.04-19.96,6.17l-56.89,107.79c-1.84,3.49-2.22,7.49-1.05,11.26s3.73,6.86,7.22,8.71c2.12,1.12,4.5,1.71,6.89,1.71,5.5,0,10.51-3.02,13.07-7.88l56.89-107.78c3.8-7.21,1.04-16.16-6.17-19.96v-.02Z"/>
  <path class="st0" d="M578.56,643.46c-7.21-3.8-16.16-1.04-19.96,6.17l-56.89,107.79c-1.84,3.49-2.22,7.49-1.05,11.26,1.16,3.77,3.73,6.86,7.22,8.71,2.12,1.12,4.5,1.71,6.89,1.71,5.5,0,10.51-3.02,13.07-7.88l56.89-107.78c3.8-7.21,1.04-16.16-6.17-19.96v-.02Z"/>
  <path class="st0" d="M232.7,493.64c-36.98,0-67.06,30.08-67.06,67.06,0,8.15,6.63,14.78,14.78,14.78s14.78-6.63,14.78-14.78c0-20.68,16.83-37.51,37.51-37.51s37.51,16.83,37.51,37.51-16.83,37.51-37.51,37.51H15.52c-8.15,0-14.78,6.63-14.78,14.77s6.63,14.78,14.78,14.78h218.52c.45,0,.9-.03,1.35-.07,35.73-1.42,64.37-30.92,64.37-66.99s-30.08-67.06-67.06-67.06h0Z"/>
  <path class="st0" d="M119.19,562.48H15.52c-8.15,0-14.78,6.63-14.78,14.77s6.63,14.78,14.78,14.78h104.44c.26,0,.52-.03.78-.04,24.19-.83,43.61-20.75,43.61-45.13s-20.26-45.17-45.17-45.17-45.17,20.26-45.17,45.17c0,8.15,6.63,14.78,14.78,14.78s14.77-6.63,14.77-14.78c0-8.61,7.01-15.62,15.62-15.62s15.62,7.01,15.62,15.62-7.01,15.62-15.62,15.62h0Z"/>
  <path class="st0" d="M233.72,635.81c-.32-.02-.63-.05-.95-.05H16.86c-8.15,0-14.77,6.63-14.77,14.78s6.63,14.78,14.77,14.78h214.95c12.3,0,22.31,10.01,22.31,22.31s-10.01,22.31-22.31,22.31-22.31-10.01-22.31-22.31c0-8.15-6.63-14.77-14.78-14.77s-14.77,6.63-14.77,14.77c0,28.6,23.26,51.86,51.86,51.86s51.86-23.26,51.86-51.86-22.24-50.8-49.95-51.81h0Z"/>
</svg>