<?xml version="1.0" encoding="UTF-8"?>
<svg id="Layer_1" xmlns="http://www.w3.org/2000/svg" version="1.1" viewBox="0 0 850.39 850.39">
  <!-- Generator: Adobe Illustrator 30.4.0, SVG Export Plug-In . SVG Version: 2.1.4 Build 226)  -->
  <defs>
    <style>
      .st0 {
        fill: #8f8f8f;
      }
    </style>
  </defs>
  <path class="st0" d="M846.82,330.86c-3.68-4.3-9.38-6.1-14.87-4.7-16.71,4.26-34,6.43-51.37,6.43-113.91,0-206.59-92.69-206.59-206.62,0-17.37,2.16-34.65,6.43-51.37,1.4-5.49-.4-11.19-4.7-14.87s-10.21-4.59-15.41-2.37c-49.91,21.31-90.96,61.38-113.66,110.6-19.71-6.65-40.56-10.12-61.87-10.12-64.48,0-125.97,33.18-161.61,86.89-6.68-1.31-13.51-1.97-20.36-1.97-27.77,0-54.03,10.72-73.93,30.19-18.64,18.24-29.74,42.22-31.56,67.99-25.38,6.6-48.59,21.02-65.8,40.97C11.19,405.49,0,435.63,0,466.8c0,71.69,58.33,130.02,130.02,130.02h30.83c8.15,0,14.78-6.63,14.78-14.78s-6.63-14.77-14.78-14.77h-30.83c-55.4,0-100.47-45.07-100.47-100.47,0-49.79,35.62-91.52,84.69-99.22,7.58-1.19,12.94-7.86,12.46-15.52-.06-.99-.09-2.15-.09-3.53,0-42.02,34.19-76.21,76.21-76.21,7.78,0,15.44,1.17,22.77,3.47,6.63,2.09,13.71-.65,17.2-6.66,29.34-50.41,83.75-81.73,141.99-81.73,90.52,0,164.16,73.64,164.16,164.16v.36c0,7.67,5.99,14.14,13.63,14.73,51.88,4.03,92.51,48.02,92.51,100.15,0,55.4-45.07,100.47-100.47,100.47h-79.36c-8.15,0-14.77,6.63-14.77,14.77s6.63,14.78,14.77,14.78h79.36c68.32,0,124.46-52.98,129.6-120.01,72.92-12.57,135.77-62.1,164.99-130.53,2.23-5.21,1.32-11.12-2.37-15.42h-.01ZM649.87,378.31c-19.09-20.54-44.41-34.41-71.8-39.41-3.11-48.09-23.87-92.88-58.8-126.63-13.68-13.21-28.98-24.19-45.43-32.74,15.59-33.46,40.81-61.87,72.25-81.5-1.09,9.26-1.64,18.62-1.64,27.94,0,130.22,105.93,236.17,236.14,236.17,9.33,0,18.69-.55,27.96-1.64-28.01,44.91-73.67,76.43-125.45,86.48-3.92-25.57-15.36-49.44-33.22-68.67h-.01Z"/>
  <path class="st0" d="M191.53,454.62c2.63,4.56,7.54,7.39,12.8,7.39,2.59,0,5.14-.69,7.38-1.98l38.49-22.22v44.45c0,8.15,6.63,14.77,14.78,14.77s14.77-6.63,14.77-14.77v-44.45l38.49,22.22c2.24,1.3,4.8,1.98,7.38,1.98,5.27,0,10.17-2.83,12.8-7.39,4.07-7.06,1.65-16.11-5.41-20.18l-38.49-22.22,38.49-22.22c7.06-4.07,9.48-13.13,5.41-20.18s-13.13-9.48-20.18-5.41l-38.49,22.22v-44.45c0-8.15-6.63-14.78-14.77-14.78s-14.78,6.63-14.78,14.78v44.45l-38.49-22.22c-3.42-1.97-7.4-2.5-11.21-1.48-3.81,1.02-7,3.47-8.97,6.88-4.07,7.06-1.65,16.11,5.41,20.18l38.49,22.22-38.49,22.22c-7.05,4.07-9.48,13.13-5.41,20.18h0Z"/>
  <path class="st0" d="M305.07,667.01c-1.97-3.42-5.16-5.86-8.97-6.88s-7.8-.5-11.21,1.48l-38.49,22.22v-44.45c0-8.15-6.63-14.78-14.78-14.78s-14.78,6.63-14.78,14.78v44.45l-38.49-22.22c-3.42-1.97-7.4-2.5-11.22-1.48-3.81,1.02-7,3.47-8.97,6.88-4.07,7.05-1.65,16.11,5.41,20.18l38.49,22.22-38.49,22.22c-7.06,4.07-9.48,13.13-5.41,20.18,2.63,4.56,7.54,7.39,12.8,7.39,2.59,0,5.14-.69,7.38-1.98l38.49-22.22v44.45c0,8.15,6.63,14.78,14.78,14.78s14.78-6.63,14.78-14.78v-44.45l38.49,22.22c2.24,1.29,4.8,1.98,7.38,1.98,5.27,0,10.17-2.83,12.8-7.39,4.07-7.06,1.65-16.11-5.41-20.18l-38.49-22.22,38.49-22.22c7.05-4.07,9.48-13.13,5.41-20.18h.01Z"/>
  <path class="st0" d="M438.51,530.54c-1.97-3.42-5.16-5.86-8.97-6.88s-7.8-.5-11.21,1.48l-38.49,22.22v-44.45c0-8.15-6.63-14.78-14.77-14.78s-14.78,6.63-14.78,14.78v44.45l-38.49-22.22c-3.42-1.98-7.4-2.5-11.22-1.48-3.81,1.02-7,3.47-8.97,6.88-4.07,7.05-1.65,16.11,5.41,20.18l38.49,22.22-38.49,22.22c-7.05,4.07-9.48,13.13-5.41,20.18,2.63,4.56,7.54,7.39,12.8,7.39,2.59,0,5.14-.69,7.38-1.98l38.49-22.22v44.45c0,8.15,6.63,14.78,14.78,14.78s14.77-6.63,14.77-14.78v-44.45l38.49,22.22c2.24,1.3,4.8,1.98,7.38,1.98,5.27,0,10.17-2.83,12.8-7.39,4.07-7.05,1.65-16.11-5.41-20.18l-38.49-22.22,38.49-22.22c7.05-4.07,9.48-13.13,5.41-20.18h.01Z"/>
</svg>