<?xml version="1.0" encoding="UTF-8"?>
<svg id="Layer_1" xmlns="http://www.w3.org/2000/svg" version="1.1" viewBox="0 0 850.39 850.39">
  <!-- Generator: Adobe Illustrator 30.4.0, SVG Export Plug-In . SVG Version: 2.1.4 Build 226)  -->
  <defs>
    <style>
      .st0 {
        fill: #8f8f8f;
      }
    </style>
  </defs>
  <path class="st0" d="M797.85,267.87c-23.44-25.23-54.66-41.95-88.42-47.47-3.07-58.58-27.89-113.24-70.24-154.44C595.47,23.43,537.87,0,477.01,0,398.6,0,324.12,40.67,281.49,106.45c-8.68-1.88-17.58-2.83-26.53-2.83-66.77,0-121.92,52.95-125.26,119.06-31.28,7.55-59.89,25-81.01,49.49-24.23,28.1-37.58,64.04-37.58,101.21,0,85.48,69.54,155.03,155.03,155.03h518.13c85.48,0,155.03-69.55,155.03-155.03,0-39.28-14.72-76.75-41.44-105.51ZM684.26,499.63H166.13c-69.61,0-126.25-56.63-126.25-126.25,0-62.57,44.76-115,106.42-124.68,7.38-1.16,12.6-7.65,12.13-15.11-.08-1.29-.12-2.77-.12-4.54,0-53.29,43.35-96.64,96.64-96.64,9.87,0,19.58,1.48,28.88,4.4,6.46,2.04,13.35-.63,16.76-6.49,36.46-62.64,104.06-101.55,176.42-101.55,112.47,0,203.97,91.5,203.97,203.97v.44c0,7.47,5.83,13.77,13.28,14.35,65.19,5.06,116.26,60.34,116.26,125.85,0,69.61-56.63,126.25-126.25,126.25Z"/>
  <path class="st0" d="M313.48,556.81c-3.4-1.8-7.29-2.16-10.97-1.02-3.67,1.13-6.68,3.63-8.47,7.03l-70.32,133.24c-3.7,7.02-1.01,15.74,6.01,19.44,2.06,1.09,4.38,1.66,6.71,1.66,5.35,0,10.23-2.94,12.73-7.67l70.32-133.23c3.7-7.02,1.01-15.74-6.01-19.44Z"/>
  <path class="st0" d="M372.7,690.04c-3.4-1.8-7.3-2.16-10.97-1.02-3.67,1.14-6.68,3.63-8.47,7.03l-70.32,133.23c-3.7,7.02-1.01,15.74,6.01,19.44,2.07,1.09,4.38,1.67,6.71,1.67,5.36,0,10.23-2.94,12.73-7.67l70.32-133.23c3.7-7.02,1.01-15.74-6.01-19.44Z"/>
  <path class="st0" d="M539.24,567.91c-3.4-1.79-7.3-2.16-10.97-1.02-3.67,1.14-6.68,3.63-8.47,7.03l-70.32,133.23c-3.7,7.02-1.01,15.74,6.01,19.44,2.06,1.09,4.38,1.67,6.71,1.67,5.35,0,10.23-2.94,12.73-7.67l70.32-133.24c3.7-7.02,1.01-15.74-6.01-19.44Z"/>
</svg>