<?xml version="1.0" encoding="UTF-8"?>
<svg id="Layer_1" xmlns="http://www.w3.org/2000/svg" version="1.1" viewBox="0 0 850.39 850.39">
  <!-- Generator: Adobe Illustrator 30.4.0, SVG Export Plug-In . SVG Version: 2.1.4 Build 226)  -->
  <defs>
    <style>
      .st0 {
        fill: #8f8f8f;
      }
    </style>
  </defs>
  <path class="st0" d="M807.84,331.11c-24.07-25.91-56.13-43.08-90.79-48.75-3.15-60.15-28.64-116.28-72.12-158.58-44.9-43.68-104.05-67.73-166.54-67.73-80.51,0-156.99,41.76-200.77,109.31-8.91-1.93-18.06-2.9-27.25-2.9-68.56,0-125.19,54.37-128.62,122.25-32.11,7.76-61.5,25.67-83.19,50.82C13.7,364.38,0,401.29,0,439.45,0,527.22,71.41,598.63,159.18,598.63h532.03c87.77,0,159.18-71.41,159.18-159.18,0-40.34-15.11-78.81-42.55-108.34ZM691.21,569.08H159.18c-71.48,0-129.63-58.15-129.63-129.63,0-64.25,45.96-118.09,109.27-128.03,7.58-1.19,12.93-7.86,12.46-15.52-.08-1.32-.12-2.85-.12-4.67,0-54.72,44.51-99.23,99.23-99.23,10.13,0,20.11,1.52,29.65,4.52,6.63,2.09,13.71-.65,17.21-6.66,37.43-64.32,106.85-104.27,181.16-104.27,115.48,0,209.44,93.95,209.44,209.44v.45c0,7.67,5.99,14.14,13.63,14.73,66.94,5.2,119.38,61.96,119.38,129.22,0,71.48-58.15,129.63-129.63,129.63Z"/>
  <path class="st0" d="M251.59,629.69c-3.49-1.84-7.49-2.22-11.26-1.05-3.77,1.17-6.86,3.73-8.7,7.22l-72.2,136.81c-3.8,7.21-1.03,16.16,6.17,19.96,2.12,1.12,4.5,1.71,6.89,1.71,5.5,0,10.51-3.02,13.07-7.88l72.2-136.81c3.8-7.2,1.04-16.16-6.17-19.96Z"/>
  <path class="st0" d="M365.59,629.69c-3.49-1.84-7.49-2.22-11.26-1.05-3.77,1.17-6.86,3.73-8.7,7.22l-72.2,136.81c-3.8,7.21-1.03,16.16,6.17,19.96,2.12,1.12,4.5,1.71,6.89,1.71,5.5,0,10.51-3.02,13.07-7.88l72.2-136.81c3.8-7.2,1.03-16.16-6.17-19.96Z"/>
  <path class="st0" d="M479.6,629.69c-3.49-1.84-7.49-2.22-11.26-1.05-3.77,1.17-6.86,3.73-8.7,7.22l-72.2,136.81c-3.8,7.21-1.03,16.16,6.17,19.96,2.12,1.12,4.5,1.71,6.89,1.71,5.5,0,10.51-3.02,13.07-7.88l72.2-136.81c3.8-7.2,1.03-16.16-6.17-19.96Z"/>
  <path class="st0" d="M593.6,629.69c-3.49-1.84-7.49-2.22-11.26-1.05-3.77,1.17-6.86,3.73-8.7,7.22l-72.2,136.81c-3.8,7.21-1.03,16.16,6.17,19.96,2.12,1.12,4.5,1.71,6.89,1.71,5.5,0,10.51-3.02,13.07-7.88l72.2-136.81c3.8-7.2,1.03-16.16-6.17-19.96Z"/>
</svg>