<?xml version="1.0" encoding="UTF-8"?>
<svg id="Layer_1" xmlns="http://www.w3.org/2000/svg" version="1.1" viewBox="0 0 850.39 850.39">
  <!-- Generator: Adobe Illustrator 30.4.0, SVG Export Plug-In . SVG Version: 2.1.4 Build 226)  -->
  <defs>
    <style>
      .st0 {
        fill: #8e8e8e;
      }
    </style>
  </defs>
  <path class="st0" d="M232.87,226.49c3.87,6.71,11.1,10.88,18.86,10.88,3.8,0,7.56-1.01,10.87-2.92l79.29-45.78v91.55c0,12,9.76,21.76,21.76,21.76s21.76-9.76,21.76-21.76v-91.55l79.28,45.77c3.31,1.91,7.06,2.92,10.87,2.92,7.76,0,14.98-4.17,18.85-10.88,2.91-5.03,3.68-10.9,2.17-16.51-1.5-5.61-5.1-10.3-10.14-13.21l-79.29-45.78,79.29-45.78c5.03-2.9,8.63-7.6,10.14-13.21,1.5-5.61.73-11.48-2.17-16.51-2.91-5.03-7.6-8.63-13.21-10.14-5.62-1.5-11.48-.74-16.51,2.18l-79.28,45.77V21.76C385.39,9.76,375.63,0,363.64,0s-21.76,9.76-21.76,21.76v91.55l-79.29-45.77c-5.03-2.91-10.9-3.68-16.51-2.18-5.61,1.51-10.3,5.11-13.21,10.14-6,10.39-2.43,23.72,7.96,29.72l79.29,45.78-79.29,45.78c-10.39,6-13.96,19.33-7.97,29.72Z"/>
  <path class="st0" d="M435.02,640.42c1.5-5.61.73-11.48-2.17-16.51-2.91-5.03-7.6-8.63-13.21-10.14-5.62-1.51-11.48-.74-16.51,2.17l-79.29,45.78v-91.55c0-12-9.76-21.76-21.76-21.76s-21.76,9.76-21.76,21.76v91.55l-79.28-45.78c-5.04-2.91-10.9-3.68-16.51-2.17-5.61,1.5-10.3,5.11-13.21,10.14-6,10.39-2.43,23.72,7.96,29.72l79.29,45.78-79.29,45.77c-10.39,6-13.96,19.33-7.97,29.72,3.87,6.71,11.1,10.88,18.86,10.88,3.81,0,7.56-1.01,10.87-2.92l79.28-45.77v91.55c0,12,9.76,21.76,21.76,21.76s21.76-9.76,21.76-21.76v-91.55l79.28,45.78c3.31,1.91,7.06,2.92,10.87,2.92,7.76,0,14.98-4.17,18.85-10.88,2.91-5.03,3.68-10.9,2.18-16.51-1.51-5.61-5.11-10.31-10.14-13.21l-79.29-45.77,79.29-45.78c5.03-2.9,8.63-7.6,10.14-13.21Z"/>
  <path class="st0" d="M681.24,388.6c1.5-5.61.73-11.48-2.17-16.51-2.9-5.03-7.6-8.63-13.21-10.14-5.62-1.51-11.48-.73-16.51,2.18l-79.28,45.77v-91.55c0-12-9.76-21.76-21.76-21.76s-21.76,9.76-21.76,21.76v91.55l-79.28-45.77c-5.04-2.91-10.9-3.68-16.52-2.18-5.61,1.51-10.3,5.11-13.2,10.14-6,10.39-2.43,23.72,7.96,29.72l79.29,45.78-79.29,45.77c-10.39,6-13.96,19.33-7.97,29.72,3.87,6.71,11.1,10.88,18.86,10.88,3.8,0,7.56-1.01,10.87-2.92l79.29-45.77v91.55c0,12,9.76,21.76,21.76,21.76s21.76-9.76,21.76-21.76v-91.55l79.28,45.77c3.31,1.91,7.06,2.92,10.87,2.92,7.75,0,14.98-4.17,18.85-10.88,2.91-5.03,3.68-10.9,2.17-16.51-1.5-5.61-5.1-10.31-10.14-13.21l-79.29-45.78,79.29-45.77c5.03-2.91,8.63-7.6,10.14-13.21Z"/>
</svg>