<?xml version="1.0" encoding="UTF-8"?>
<svg id="Layer_1" xmlns="http://www.w3.org/2000/svg" version="1.1" viewBox="0 0 850.39 850.39">
  <!-- Generator: Adobe Illustrator 30.4.0, SVG Export Plug-In . SVG Version: 2.1.4 Build 226)  -->
  <defs>
    <style>
      .st0 {
        fill: #8f8f8f;
      }
    </style>
  </defs>
  <path class="st0" d="M261.5,116.21c8.15,0,14.78-6.63,14.78-14.78V35.98c0-8.15-6.63-14.78-14.78-14.78s-14.77,6.63-14.77,14.78v65.46c0,8.15,6.63,14.78,14.77,14.78h0Z"/>
  <path class="st0" d="M122.88,164.98c2.79,2.79,6.5,4.33,10.45,4.33s7.66-1.54,10.45-4.33c2.79-2.79,4.33-6.5,4.33-10.45s-1.54-7.66-4.33-10.45l-46.28-46.28c-2.79-2.79-6.5-4.33-10.45-4.33s-7.66,1.54-10.45,4.33c-2.79,2.79-4.33,6.5-4.33,10.45s1.54,7.66,4.33,10.45c0,0,46.28,46.28,46.28,46.28Z"/>
  <path class="st0" d="M95.01,282.71c0-8.15-6.63-14.78-14.78-14.78H14.78c-8.15,0-14.78,6.63-14.78,14.78s6.63,14.77,14.78,14.77h65.46c8.15,0,14.78-6.63,14.78-14.77h0Z"/>
  <path class="st0" d="M148.1,410.88c0-3.95-1.54-7.66-4.33-10.45-2.79-2.79-6.5-4.33-10.45-4.33s-7.66,1.54-10.45,4.33l-46.29,46.29c-2.79,2.79-4.33,6.5-4.33,10.45s1.54,7.66,4.33,10.45,6.5,4.33,10.45,4.33,7.66-1.54,10.45-4.33l46.29-46.29c2.79-2.79,4.33-6.5,4.33-10.45Z"/>
  <path class="st0" d="M389.68,169.3c3.95,0,7.66-1.54,10.45-4.33l46.29-46.29c2.79-2.79,4.33-6.5,4.33-10.45s-1.54-7.66-4.33-10.45c-2.79-2.79-6.5-4.33-10.45-4.33s-7.66,1.54-10.45,4.33l-46.29,46.28c-2.79,2.79-4.33,6.5-4.33,10.45s1.54,7.66,4.33,10.45c2.79,2.79,6.5,4.33,10.45,4.33h0Z"/>
  <path class="st0" d="M814.31,396.45c-19.93-21.45-46.41-35.88-75.03-41-3.12-50.14-24.68-96.86-61.07-132.05-37.79-36.56-87.49-56.69-139.94-56.69-58.25,0-114.11,26.04-152.07,69.48-7.71-20.64-20.49-39.25-37.38-53.94-24.2-21.05-55.21-32.65-87.32-32.65-73.39,0-133.1,59.71-133.1,133.1,0,41.89,19.92,81.23,52.89,106.2-3.87,3.54-7.53,7.31-10.97,11.29-21.1,24.47-32.72,55.76-32.72,88.12,0,74.42,60.55,134.97,134.98,134.97h32.16c8.15,0,14.77-6.63,14.77-14.78s-6.63-14.77-14.77-14.77h-32.16c-58.13,0-105.42-47.29-105.42-105.42,0-52.25,37.37-96.04,88.86-104.12,7.58-1.19,12.93-7.86,12.46-15.51-.07-1.07-.1-2.29-.1-3.73,0-44.18,35.94-80.12,80.12-80.12,8.18,0,16.23,1.23,23.94,3.65,6.63,2.09,13.71-.65,17.2-6.66,30.72-52.78,87.67-85.56,148.65-85.56,94.76,0,171.85,77.09,171.85,171.85v.38c0,7.67,5.99,14.14,13.63,14.73,54.44,4.23,97.08,50.39,97.08,105.09,0,58.13-47.29,105.42-105.43,105.42h-82.77c-8.15,0-14.78,6.63-14.78,14.77s6.63,14.78,14.78,14.78h82.77c74.43,0,134.98-60.55,134.98-134.97,0-34.2-12.81-66.83-36.08-91.87h-.01ZM206.67,370.56c-30.15-18.87-48.72-52.18-48.72-87.86,0-57.1,46.45-103.55,103.55-103.55,47.05,0,88.18,32.37,100.07,76.94-4.33-.52-8.7-.81-13.08-.81-28.85,0-56.11,11.15-76.76,31.41-19.39,19.02-30.88,44.02-32.67,70.86-11.32,2.9-22.21,7.31-32.39,13.02h0Z"/>
  <path class="st0" d="M335.8,464.08c-1.02,3.81-.5,7.79,1.48,11.21,2.63,4.56,7.54,7.39,12.8,7.39,2.59,0,5.14-.69,7.38-1.98l41.1-23.73v47.46c0,8.15,6.63,14.78,14.77,14.78s14.78-6.63,14.78-14.78v-47.46l41.1,23.73c2.25,1.3,4.8,1.98,7.38,1.98,5.27,0,10.17-2.83,12.8-7.39,1.97-3.42,2.5-7.4,1.48-11.21s-3.47-7-6.88-8.97l-41.1-23.73,41.1-23.73c3.42-1.97,5.86-5.16,6.88-8.97,1.02-3.81.5-7.79-1.48-11.21-1.97-3.42-5.16-5.86-8.97-6.89-3.82-1.02-7.8-.5-11.21,1.48l-41.1,23.73v-47.46c0-8.15-6.63-14.78-14.78-14.78s-14.77,6.63-14.77,14.78v47.46l-41.1-23.73c-3.42-1.98-7.4-2.5-11.22-1.48-3.81,1.02-7,3.47-8.97,6.88-1.97,3.42-2.5,7.4-1.48,11.21s3.47,7,6.88,8.97l41.1,23.73-41.1,23.73c-3.42,1.97-5.86,5.16-6.88,8.97h.01Z"/>
  <path class="st0" d="M456.07,708.66c1.02-3.81.5-7.79-1.48-11.21-1.97-3.42-5.16-5.86-8.97-6.88-3.82-1.02-7.8-.5-11.21,1.48l-41.1,23.73v-47.46c0-8.15-6.63-14.77-14.77-14.77s-14.78,6.63-14.78,14.77v47.46l-41.1-23.73c-3.42-1.97-7.41-2.5-11.22-1.48s-7,3.47-8.97,6.88c-1.97,3.42-2.5,7.4-1.48,11.21s3.47,7,6.88,8.97l41.1,23.73-41.1,23.73c-3.42,1.97-5.86,5.16-6.88,8.97-1.02,3.81-.5,7.79,1.47,11.21,2.63,4.56,7.54,7.39,12.8,7.39,2.58,0,5.14-.69,7.38-1.98l41.1-23.73v47.46c0,8.15,6.63,14.77,14.78,14.77s14.77-6.63,14.77-14.77v-47.46l41.1,23.73c2.25,1.3,4.8,1.98,7.38,1.98,5.27,0,10.17-2.83,12.8-7.39,1.97-3.42,2.5-7.4,1.48-11.21s-3.47-7-6.88-8.97l-41.1-23.73,41.1-23.73c3.42-1.97,5.86-5.16,6.88-8.97h.02Z"/>
  <path class="st0" d="M595.25,566.32c1.02-3.81.5-7.79-1.48-11.21-1.97-3.42-5.16-5.86-8.97-6.89-3.81-1.02-7.8-.5-11.21,1.48l-41.1,23.73v-47.46c0-8.15-6.63-14.78-14.77-14.78s-14.78,6.63-14.78,14.78v47.46l-41.1-23.73c-3.42-1.97-7.4-2.5-11.22-1.48-3.81,1.02-7,3.47-8.97,6.88-1.97,3.42-2.5,7.4-1.48,11.21s3.47,7,6.88,8.97l41.1,23.73-41.1,23.73c-3.42,1.97-5.86,5.16-6.88,8.97-1.02,3.81-.5,7.79,1.48,11.21,2.63,4.56,7.54,7.39,12.8,7.39,2.59,0,5.14-.68,7.38-1.98l41.1-23.73v47.46c0,8.15,6.63,14.77,14.78,14.77s14.77-6.63,14.77-14.77v-47.46l41.1,23.73c2.25,1.3,4.8,1.98,7.38,1.98,5.27,0,10.17-2.83,12.8-7.39,1.97-3.42,2.5-7.4,1.48-11.21s-3.47-7-6.88-8.97l-41.1-23.73,41.1-23.73c3.42-1.97,5.86-5.16,6.88-8.97h.01Z"/>
</svg>