<?xml version="1.0" encoding="UTF-8"?>
<svg id="Layer_1" xmlns="http://www.w3.org/2000/svg" version="1.1" viewBox="0 0 850.39 850.39">
  <!-- Generator: Adobe Illustrator 30.4.0, SVG Export Plug-In . SVG Version: 2.1.4 Build 226)  -->
  <defs>
    <style>
      .st0 {
        fill: #8f8f8f;
      }
    </style>
  </defs>
  <path class="st0" d="M257.3,138.98c8.15,0,14.78-6.63,14.78-14.77V59.86c0-8.15-6.63-14.77-14.78-14.77s-14.78,6.63-14.78,14.77v64.34c0,8.15,6.63,14.77,14.78,14.77Z"/>
  <path class="st0" d="M120.86,186.84c2.79,2.79,6.5,4.33,10.45,4.33s7.66-1.54,10.45-4.33c5.76-5.76,5.76-15.13,0-20.9l-45.5-45.5c-5.76-5.76-15.13-5.76-20.89,0-5.76,5.76-5.76,15.13,0,20.9l45.5,45.5Z"/>
  <path class="st0" d="M93.89,302.38c0-8.15-6.63-14.77-14.78-14.77H14.78C6.63,287.61,0,294.23,0,302.38s6.63,14.78,14.78,14.78h64.34c8.15,0,14.78-6.63,14.78-14.78Z"/>
  <path class="st0" d="M120.86,417.92l-45.5,45.5c-5.76,5.76-5.76,15.14,0,20.9,2.79,2.79,6.5,4.33,10.45,4.33s7.66-1.54,10.45-4.33l45.5-45.5c5.76-5.76,5.76-15.13,0-20.9-5.76-5.76-15.13-5.76-20.9,0Z"/>
  <path class="st0" d="M383.29,191.16c3.94,0,7.66-1.54,10.45-4.33l45.5-45.5c5.76-5.76,5.76-15.14,0-20.9-5.76-5.76-15.13-5.76-20.89,0l-45.5,45.5c-5.76,5.76-5.76,15.13,0,20.9,2.79,2.79,6.5,4.33,10.45,4.33Z"/>
  <path class="st0" d="M814.86,401.57c-19.58-21.07-45.58-35.27-73.69-40.34-3.12-49.29-24.34-95.21-60.13-129.81-37.19-35.95-86.09-55.75-137.69-55.75-64.04,0-125.16,31.96-162.05,84.07-18-52.61-67.47-88.45-124-88.45-72.28,0-131.09,58.8-131.09,131.09,0,41.77,20.04,80.86,53.18,105.41-19.44,23.71-30.14,53.48-30.14,84.26,0,73.3,59.63,132.93,132.93,132.93h435.3c73.3,0,132.93-59.63,132.93-132.93,0-33.68-12.62-65.81-35.53-90.47ZM717.47,595.42h-435.3c-57,0-103.38-46.37-103.38-103.38,0-51.23,36.65-94.17,87.14-102.09,7.58-1.19,12.93-7.86,12.46-15.52-.06-1.03-.09-2.23-.09-3.65,0-43.29,35.22-78.5,78.5-78.5,8.01,0,15.91,1.2,23.46,3.58,6.64,2.08,13.71-.65,17.2-6.66,30.15-51.8,86.05-83.97,145.9-83.97,93,0,168.67,75.67,168.67,168.67v.37c0,7.67,5.99,14.14,13.63,14.73,53.38,4.14,95.19,49.41,95.19,103.05,0,57-46.37,103.38-103.38,103.38ZM257.3,200.84c41.44,0,77.97,24.87,93.58,62.06-26.2,1.41-50.75,12.19-69.67,30.73-19.08,18.7-30.41,43.28-32.21,69.67-17.4,4.49-33.79,12.58-48.03,23.55-28.05-18.75-45.2-50.48-45.2-84.48,0-55.99,45.55-101.54,101.54-101.54Z"/>
  <path class="st0" d="M397.89,665.53c-3.49-1.84-7.49-2.22-11.26-1.05-3.77,1.17-6.86,3.73-8.7,7.22l-59.08,111.93c-3.8,7.2-1.03,16.16,6.17,19.96,2.12,1.12,4.5,1.71,6.89,1.71,5.5,0,10.51-3.02,13.07-7.88l59.08-111.93c3.8-7.21,1.04-16.16-6.17-19.96Z"/>
  <path class="st0" d="M491.17,665.53c-3.49-1.84-7.49-2.22-11.26-1.05-3.77,1.17-6.86,3.73-8.7,7.22l-59.08,111.93c-3.8,7.2-1.03,16.16,6.17,19.96,2.12,1.12,4.5,1.71,6.89,1.71,5.5,0,10.51-3.02,13.07-7.88l59.08-111.93c3.8-7.21,1.03-16.16-6.17-19.96Z"/>
  <path class="st0" d="M584.45,665.53c-3.49-1.84-7.49-2.22-11.26-1.05-3.77,1.17-6.86,3.73-8.7,7.22l-59.08,111.93c-3.8,7.2-1.03,16.16,6.17,19.96,2.12,1.12,4.5,1.71,6.89,1.71,5.5,0,10.51-3.02,13.07-7.88l59.08-111.93c3.8-7.21,1.03-16.16-6.17-19.96Z"/>
  <path class="st0" d="M677.73,665.53c-3.49-1.84-7.49-2.22-11.26-1.05-3.77,1.17-6.86,3.73-8.7,7.22l-59.08,111.93c-3.8,7.2-1.04,16.16,6.17,19.96,2.12,1.12,4.5,1.71,6.89,1.71,5.5,0,10.51-3.02,13.07-7.88l59.08-111.93c3.8-7.21,1.03-16.16-6.17-19.96Z"/>
</svg>