<?xml version="1.0" encoding="UTF-8"?>
<svg id="Layer_1" xmlns="http://www.w3.org/2000/svg" version="1.1" viewBox="0 0 850.39 850.39">
  <!-- Generator: Adobe Illustrator 30.4.0, SVG Export Plug-In . SVG Version: 2.1.4 Build 226)  -->
  <defs>
    <style>
      .st0 {
        fill: #8f8f8f;
      }
    </style>
  </defs>
  <path class="st0" d="M259.3,92.4c8.03,0,14.56-6.53,14.56-14.56V14.56C273.86,6.53,267.32,0,259.3,0s-14.56,6.53-14.56,14.56v63.28c0,8.03,6.53,14.56,14.56,14.56Z"/>
  <path class="st0" d="M125.08,139.47c2.75,2.75,6.41,4.27,10.3,4.27s7.55-1.52,10.29-4.26c2.75-2.75,4.27-6.41,4.27-10.3s-1.52-7.55-4.27-10.3l-44.75-44.75c-2.75-2.75-6.41-4.27-10.3-4.27s-7.55,1.51-10.29,4.26c-2.75,2.75-4.27,6.41-4.27,10.3s1.52,7.55,4.27,10.3l44.75,44.75Z"/>
  <path class="st0" d="M98.61,253.09c0-8.03-6.53-14.56-14.56-14.56H20.77c-8.03,0-14.56,6.53-14.56,14.56s6.53,14.56,14.56,14.56h63.29c8.03,0,14.56-6.53,14.56-14.56Z"/>
  <path class="st0" d="M135.38,362.45c-3.89,0-7.55,1.52-10.29,4.26l-44.75,44.75c-2.75,2.75-4.27,6.41-4.27,10.3s1.52,7.55,4.26,10.29c2.75,2.75,6.41,4.27,10.3,4.27s7.55-1.52,10.29-4.26l44.75-44.75c2.75-2.75,4.27-6.41,4.27-10.3s-1.52-7.55-4.27-10.29c-2.75-2.75-6.4-4.27-10.3-4.27Z"/>
  <path class="st0" d="M383.21,143.73c3.89,0,7.55-1.52,10.29-4.26l44.75-44.75c2.75-2.75,4.27-6.41,4.27-10.3s-1.52-7.55-4.27-10.29c-2.75-2.75-6.4-4.27-10.3-4.27s-7.55,1.51-10.29,4.26l-44.75,44.75c-2.75,2.75-4.27,6.41-4.27,10.3s1.52,7.55,4.26,10.29c2.75,2.75,6.41,4.27,10.3,4.27Z"/>
  <path class="st0" d="M809.23,346.04c-19.26-20.73-44.83-34.69-72.47-39.68-3.07-48.48-23.95-93.65-59.16-127.68-36.58-35.36-84.68-54.84-135.44-54.84-64.21,0-125.44,32.69-161.48,85.72-18.19-50.64-67.1-85.44-121.4-85.44-71.11,0-128.96,57.85-128.96,128.96,0,40.93,18.82,78.41,50.95,102.71-17.3,22.69-26.77,50.53-26.77,79.24,0,53.36,31.91,100.89,81.29,121.08,7.43,3.04,15.95-.54,18.98-7.97,3.04-7.43-.53-15.95-7.97-18.99-38.39-15.7-63.19-52.65-63.19-94.13,0-50.38,36.03-92.6,85.68-100.39,7.47-1.17,12.75-7.75,12.27-15.29-.06-1.01-.09-2.18-.09-3.59,0-42.56,34.62-77.18,77.18-77.18,7.88,0,15.64,1.18,23.06,3.52,6.54,2.06,13.5-.65,16.95-6.57,29.65-50.94,84.62-82.58,143.47-82.58,91.46,0,165.87,74.41,165.87,165.87v.37c0,7.56,5.9,13.93,13.43,14.52,52.49,4.08,93.6,48.58,93.6,101.33,0,56.05-45.6,101.65-101.65,101.65h-201.32c-8.03,0-14.56,6.53-14.56,14.56s6.53,14.56,14.56,14.56h201.32c72.11,0,130.77-58.66,130.77-130.77,0-33.13-12.41-64.74-34.95-89ZM201.62,334.6c-26.53-18.73-42.16-48.69-42.16-81.51,0-55.05,44.79-99.84,99.84-99.84,38.56,0,73.61,22.66,90.02,56.65-24.44,2.13-47.24,12.58-64.99,29.97-18.77,18.39-29.91,42.57-31.69,68.53-18.67,4.82-36.17,13.86-51.01,26.19Z"/>
  <path class="st0" d="M569.84,606.59c-1.15-3.71-3.68-6.76-7.11-8.58-3.44-1.82-7.38-2.19-11.1-1.04-3.72,1.15-6.76,3.68-8.58,7.11l-58.1,110.09c-1.82,3.44-2.18,7.38-1.04,11.1,1.15,3.71,3.67,6.76,7.11,8.58,2.09,1.1,4.44,1.69,6.79,1.69,5.42,0,10.35-2.98,12.88-7.76l58.1-110.09c1.81-3.44,2.18-7.38,1.04-11.1Z"/>
  <path class="st0" d="M611.66,708.1c-3.44-1.82-7.38-2.18-11.09-1.04-3.72,1.15-6.77,3.68-8.58,7.11l-58.1,110.09c-1.82,3.44-2.18,7.38-1.04,11.09,1.15,3.72,3.67,6.76,7.11,8.58,2.09,1.1,4.44,1.69,6.79,1.69,5.42,0,10.35-2.98,12.88-7.76l58.1-110.09c1.82-3.44,2.18-7.38,1.04-11.1-1.15-3.72-3.67-6.76-7.11-8.58Z"/>
  <path class="st0" d="M749.27,607.18c-3.44-1.81-7.38-2.18-11.1-1.03-3.72,1.15-6.76,3.67-8.58,7.11l-58.1,110.09c-1.82,3.44-2.18,7.38-1.04,11.1,1.15,3.72,3.67,6.76,7.11,8.58,2.09,1.1,4.44,1.69,6.79,1.69,5.42,0,10.35-2.97,12.88-7.77l58.1-110.09c3.75-7.1,1.02-15.92-6.08-19.67Z"/>
  <path class="st0" d="M496.28,587.71c-2.37-5.13-7.56-8.45-13.22-8.45h-63.48l92.8-152.11c2.74-4.49,2.84-10.12.27-14.71-2.57-4.59-7.44-7.43-12.7-7.43h-118.8c-5.24,0-10.1,2.83-12.67,7.39l-125.85,222.65c-2.54,4.49-2.5,10.05.1,14.5,2.6,4.45,7.42,7.22,12.58,7.22h84.25l-75.59,173.23c-2.87,6.57-.44,14.38,5.64,18.17,2.31,1.45,4.98,2.21,7.7,2.21h0c4.28,0,8.32-1.87,11.1-5.13l205.75-242.01c3.66-4.31,4.5-10.41,2.12-15.54ZM375.14,648.05c1.97-4.52,1.53-9.68-1.16-13.8-2.7-4.12-7.25-6.58-12.18-6.58h-81.53l109.39-193.53h84.37l-92.8,152.11c-2.74,4.49-2.84,10.12-.27,14.71,2.57,4.59,7.44,7.43,12.7,7.43h57.93l-121.47,142.88,45.04-103.21Z"/>
</svg>