<?xml version="1.0" encoding="UTF-8"?>
<svg id="Layer_1" xmlns="http://www.w3.org/2000/svg" version="1.1" viewBox="0 0 850.39 850.39">
  <!-- Generator: Adobe Illustrator 30.4.0, SVG Export Plug-In . SVG Version: 2.1.4 Build 226)  -->
  <defs>
    <style>
      .st0 {
        fill: #8f8f8f;
      }
    </style>
  </defs>
  <path class="st0" d="M257.3,131.06c8.15,0,14.78-6.63,14.78-14.77V51.94c0-8.15-6.63-14.78-14.78-14.78s-14.78,6.63-14.78,14.78v64.34c0,8.15,6.63,14.77,14.78,14.77Z"/>
  <path class="st0" d="M120.86,178.92c2.79,2.79,6.5,4.33,10.45,4.33s7.66-1.54,10.45-4.33c5.76-5.76,5.76-15.13,0-20.9l-45.5-45.5c-5.76-5.76-15.13-5.76-20.89,0-5.76,5.76-5.76,15.14,0,20.9l45.5,45.5Z"/>
  <path class="st0" d="M93.89,294.46c0-8.15-6.63-14.78-14.78-14.78H14.78C6.63,279.69,0,286.32,0,294.46s6.63,14.78,14.78,14.78h64.34c8.15,0,14.78-6.63,14.78-14.78Z"/>
  <path class="st0" d="M120.86,410.01l-45.5,45.5c-5.76,5.76-5.76,15.13,0,20.9,2.79,2.79,6.5,4.33,10.45,4.33s7.66-1.54,10.45-4.33l45.5-45.5c5.76-5.76,5.76-15.14,0-20.9-5.76-5.76-15.13-5.76-20.9,0Z"/>
  <path class="st0" d="M383.29,183.25c3.94,0,7.66-1.54,10.45-4.33l45.5-45.5c5.76-5.76,5.76-15.14,0-20.9-5.76-5.76-15.13-5.76-20.89,0l-45.5,45.5c-5.76,5.76-5.76,15.13,0,20.9,2.79,2.79,6.5,4.33,10.45,4.33Z"/>
  <path class="st0" d="M814.86,393.66c-19.58-21.08-45.58-35.27-73.69-40.34-3.12-49.29-24.34-95.21-60.13-129.81-37.19-35.95-86.09-55.75-137.69-55.75-64.05,0-125.19,31.98-162.08,84.1-18.03-52.44-67.98-88.48-123.98-88.48-72.28,0-131.09,58.81-131.09,131.09,0,41.93,19.72,80.72,53.17,105.42-19.44,23.71-30.13,53.48-30.13,84.24,0,73.3,59.63,132.93,132.93,132.93h435.29c73.3,0,132.93-59.63,132.93-132.93,0-33.68-12.62-65.81-35.53-90.47ZM717.47,587.5h-435.29c-57,0-103.38-46.37-103.38-103.38,0-51.23,36.65-94.17,87.13-102.09,7.58-1.19,12.93-7.86,12.46-15.52-.06-1.03-.09-2.22-.09-3.65,0-43.29,35.22-78.5,78.5-78.5,8.01,0,15.91,1.2,23.46,3.58,6.64,2.08,13.71-.65,17.2-6.66,30.15-51.8,86.05-83.98,145.9-83.98,93,0,168.67,75.66,168.67,168.67v.37c0,7.67,5.99,14.14,13.63,14.73,53.38,4.14,95.19,49.41,95.19,103.05,0,57-46.37,103.38-103.38,103.38ZM257.3,192.93c41.04,0,77.9,24.97,93.58,62.06-26.2,1.42-50.75,12.19-69.67,30.73-19.08,18.7-30.4,43.28-32.21,69.67-17.4,4.49-33.79,12.58-48.03,23.55-28.34-18.92-45.21-50.36-45.21-84.48,0-55.99,45.55-101.54,101.54-101.54Z"/>
  <path class="st0" d="M545.18,694.57c1.02-3.81.5-7.79-1.48-11.21-4.07-7.05-13.13-9.48-20.18-5.41l-40.02,23.11v-46.21c0-8.15-6.63-14.77-14.77-14.77s-14.78,6.63-14.78,14.77v46.21l-40.02-23.11c-3.42-1.97-7.4-2.5-11.21-1.48-3.81,1.02-7,3.47-8.97,6.88-1.97,3.42-2.5,7.4-1.48,11.21,1.02,3.81,3.47,7,6.88,8.97l40.02,23.11-40.02,23.11c-7.06,4.07-9.48,13.13-5.41,20.18,2.63,4.56,7.54,7.39,12.8,7.39,2.58,0,5.14-.69,7.38-1.98l40.02-23.11v46.21c0,8.15,6.63,14.78,14.78,14.78s14.77-6.63,14.77-14.78v-46.21l40.02,23.11c2.24,1.3,4.8,1.98,7.38,1.98,5.27,0,10.17-2.83,12.8-7.39,4.07-7.06,1.65-16.11-5.41-20.18l-40.02-23.11,40.02-23.11c3.42-1.97,5.86-5.16,6.88-8.97Z"/>
</svg>