<?xml version="1.0" encoding="UTF-8"?>
<svg id="Layer_1" xmlns="http://www.w3.org/2000/svg" version="1.1" viewBox="0 0 850.39 850.39">
  <!-- Generator: Adobe Illustrator 30.4.0, SVG Export Plug-In . SVG Version: 2.1.4 Build 226)  -->
  <defs>
    <style>
      .st0 {
        fill: #8f8f8f;
      }
    </style>
  </defs>
  <path class="st0" d="M256.88,93.75c8.15,0,14.77-6.63,14.77-14.77V14.77C271.65,6.63,265.02,0,256.88,0s-14.77,6.63-14.77,14.77v64.21c0,8.15,6.63,14.77,14.77,14.77Z"/>
  <path class="st0" d="M120.7,141.5c2.79,2.79,6.5,4.33,10.45,4.33s7.66-1.54,10.44-4.33c2.79-2.79,4.33-6.5,4.33-10.45s-1.54-7.66-4.33-10.45l-45.4-45.4c-2.79-2.79-6.5-4.33-10.45-4.33s-7.66,1.54-10.44,4.33c-2.79,2.79-4.33,6.5-4.33,10.45s1.54,7.66,4.33,10.45l45.4,45.4Z"/>
  <path class="st0" d="M93.84,256.78c0-8.15-6.63-14.77-14.77-14.77H14.86c-8.15,0-14.77,6.63-14.77,14.77s6.63,14.77,14.77,14.77h64.21c8.15,0,14.77-6.63,14.77-14.77Z"/>
  <path class="st0" d="M131.15,367.74c-3.95,0-7.66,1.54-10.44,4.33l-45.4,45.4c-2.79,2.79-4.33,6.5-4.33,10.45s1.54,7.66,4.33,10.44c2.79,2.79,6.5,4.33,10.45,4.33s7.66-1.54,10.44-4.33l45.4-45.4c2.79-2.79,4.33-6.5,4.33-10.45s-1.54-7.66-4.33-10.44c-2.79-2.79-6.5-4.33-10.45-4.33Z"/>
  <path class="st0" d="M382.6,145.83c3.95,0,7.66-1.54,10.44-4.33l45.4-45.4c2.79-2.79,4.33-6.5,4.33-10.45s-1.54-7.66-4.33-10.44c-2.79-2.79-6.5-4.33-10.45-4.33s-7.66,1.54-10.44,4.33l-45.4,45.4c-2.79,2.79-4.33,6.5-4.33,10.45s1.54,7.66,4.33,10.44c2.79,2.79,6.5,4.33,10.45,4.33Z"/>
  <path class="st0" d="M814.84,355.75c-19.54-21.03-45.48-35.19-73.53-40.26-3.12-49.19-24.3-95.01-60.02-129.54-37.11-35.88-85.92-55.64-137.41-55.64-64.52,0-126.06,32.52-162.77,85.41-17.55-53.28-67.41-89.78-124.23-89.78-72.14,0-130.84,58.69-130.84,130.84,0,42.16,20.37,81.46,54.02,105.9-19.03,23.54-29.48,52.97-29.48,83.36,0,73.16,59.52,132.67,132.67,132.67h31.54c8.15,0,14.77-6.63,14.77-14.77s-6.63-14.77-14.77-14.77h-31.54c-56.87,0-103.13-46.26-103.13-103.13,0-51.11,36.56-93.95,86.93-101.85,7.58-1.19,12.93-7.86,12.45-15.51-.06-1.02-.09-2.21-.09-3.64,0-43.18,35.13-78.31,78.31-78.31,7.99,0,15.87,1.2,23.4,3.57,6.64,2.09,13.7-.65,17.2-6.66,30.08-51.68,85.86-83.79,145.57-83.79,92.79,0,168.29,75.49,168.29,168.29v.37c0,7.66,5.99,14.13,13.63,14.73,53.25,4.13,94.97,49.29,94.97,102.8,0,56.87-46.26,103.13-103.13,103.13h-81.19c-8.15,0-14.77,6.63-14.77,14.77s6.63,14.77,14.77,14.77h81.19c73.16,0,132.68-59.52,132.68-132.67,0-33.62-12.59-65.69-35.46-90.3h-.03ZM201.49,341.6c-28.48-18.64-45.9-50.51-45.9-84.82,0-55.85,45.44-101.29,101.29-101.29,41.27,0,77.8,24.87,93.38,61.99-25.57,1.75-49.48,12.42-67.99,30.56-19.04,18.66-30.35,43.19-32.15,69.53-17.65,4.55-34.26,12.82-48.63,24.04h0Z"/>
  <path class="st0" d="M597.24,398.51h-120.54c-5.32,0-10.24,2.88-12.86,7.5l-127.68,225.9c-2.57,4.56-2.54,10.19.1,14.71,2.63,4.52,7.52,7.33,12.76,7.33h85.48l-76.7,175.76c-2.91,6.66-.45,14.59,5.72,18.44,2.35,1.47,5.05,2.24,7.81,2.24h0c4.34,0,8.45-1.9,11.26-5.2l208.75-245.54c3.72-4.37,4.56-10.56,2.15-15.77s-7.67-8.57-13.41-8.57h-64.4l94.16-154.33c2.78-4.55,2.88-10.27.27-14.92-2.61-4.65-7.55-7.54-12.88-7.54h0ZM470.6,645.09c2-4.58,1.56-9.82-1.18-14s-7.36-6.68-12.36-6.68h-82.72l110.98-196.36h85.6l-94.16,154.33c-2.78,4.55-2.88,10.27-.27,14.92,2.61,4.65,7.55,7.54,12.88,7.54h58.77l-123.24,144.96,45.7-104.72h0Z"/>
</svg>