<?xml version="1.0" encoding="UTF-8"?>
<svg id="Layer_1" xmlns="http://www.w3.org/2000/svg" version="1.1" viewBox="0 0 850.39 850.39">
  <!-- Generator: Adobe Illustrator 30.4.0, SVG Export Plug-In . SVG Version: 2.1.4 Build 226)  -->
  <defs>
    <style>
      .st0 {
        fill: #8f8f8f;
      }
    </style>
  </defs>
  <path class="st0" d="M257.3,229.15c8.15,0,14.78-6.63,14.78-14.78v-64.34c0-8.15-6.63-14.77-14.78-14.77s-14.78,6.63-14.78,14.77v64.34c0,8.15,6.63,14.78,14.78,14.78Z"/>
  <path class="st0" d="M120.86,277.01c2.79,2.79,6.5,4.33,10.45,4.33s7.66-1.54,10.45-4.33c5.76-5.76,5.76-15.14,0-20.9l-45.5-45.5c-5.76-5.76-15.13-5.76-20.89,0-5.76,5.76-5.76,15.13,0,20.9l45.5,45.5Z"/>
  <path class="st0" d="M93.89,392.55c0-8.15-6.63-14.77-14.78-14.77H14.78C6.63,377.78,0,384.4,0,392.55s6.63,14.78,14.78,14.78h64.34c8.15,0,14.78-6.63,14.78-14.78Z"/>
  <path class="st0" d="M120.86,508.09l-45.5,45.5c-5.76,5.76-5.76,15.13,0,20.9,2.79,2.79,6.5,4.33,10.45,4.33s7.66-1.54,10.45-4.33l45.5-45.5c5.76-5.76,5.76-15.14,0-20.9-5.76-5.76-15.13-5.76-20.9,0Z"/>
  <path class="st0" d="M383.29,281.33c3.94,0,7.66-1.54,10.45-4.33l45.5-45.5c5.76-5.76,5.76-15.13,0-20.9-5.76-5.76-15.13-5.76-20.89,0l-45.5,45.5c-5.76,5.76-5.76,15.14,0,20.9,2.79,2.79,6.5,4.33,10.45,4.33Z"/>
  <path class="st0" d="M814.86,491.74c-19.58-21.08-45.58-35.27-73.69-40.34-3.12-49.29-24.34-95.21-60.13-129.81-37.19-35.95-86.09-55.75-137.69-55.75-64.04,0-125.17,31.96-162.06,84.08-17.99-52.63-67.4-88.46-123.99-88.46-72.28,0-131.09,58.81-131.09,131.09,0,41.56,20.09,80.86,53.17,105.42-19.44,23.71-30.14,53.48-30.14,84.25,0,73.3,59.63,132.93,132.93,132.93h435.29c73.3,0,132.93-59.63,132.93-132.93,0-33.68-12.62-65.81-35.53-90.47ZM717.47,685.59h-435.29c-57,0-103.38-46.37-103.38-103.38,0-51.23,36.65-94.17,87.13-102.09,7.58-1.19,12.93-7.86,12.46-15.52-.06-1.03-.09-2.23-.09-3.65,0-43.29,35.22-78.5,78.5-78.5,8.01,0,15.91,1.2,23.46,3.58,6.64,2.09,13.71-.65,17.2-6.66,30.15-51.8,86.05-83.98,145.9-83.98,93,0,168.67,75.67,168.67,168.67v.37c0,7.67,5.99,14.14,13.63,14.73,53.38,4.14,95.19,49.41,95.19,103.05,0,57-46.37,103.38-103.38,103.38ZM257.3,291.01c41.49,0,77.98,24.85,93.59,62.06-26.2,1.41-50.76,12.19-69.68,30.73-19.08,18.7-30.4,43.28-32.21,69.67-17.4,4.48-33.79,12.58-48.03,23.55-28-18.74-45.21-50.64-45.21-84.48,0-55.99,45.55-101.54,101.54-101.54Z"/>
</svg>