<?xml version="1.0" encoding="UTF-8"?>
<svg id="Layer_1" xmlns="http://www.w3.org/2000/svg" version="1.1" viewBox="0 0 850.39 850.39">
  <!-- Generator: Adobe Illustrator 30.4.0, SVG Export Plug-In . SVG Version: 2.1.4 Build 226)  -->
  <defs>
    <style>
      .st0 {
        fill: #8f8f8f;
      }
    </style>
  </defs>
  <path class="st0" d="M260.8,92.3c8,0,14.51-6.51,14.51-14.51V14.51C275.31,6.51,268.8,0,260.8,0s-14.51,6.51-14.51,14.51v63.29c0,8,6.51,14.51,14.51,14.51h0Z"/>
  <path class="st0" d="M126.61,139.39c2.74,2.74,6.38,4.25,10.26,4.25s7.52-1.51,10.26-4.25c2.74-2.74,4.25-6.38,4.25-10.26s-1.51-7.52-4.25-10.26l-44.75-44.75c-2.74-2.74-6.38-4.25-10.26-4.25s-7.52,1.51-10.26,4.25c-2.74,2.74-4.25,6.38-4.25,10.26s1.51,7.52,4.25,10.26l44.75,44.75h0Z"/>
  <path class="st0" d="M100.04,253.07c0-8-6.51-14.51-14.51-14.51H22.24c-8,0-14.51,6.51-14.51,14.51s6.51,14.51,14.51,14.51h63.29c8,0,14.51-6.51,14.51-14.51h0Z"/>
  <path class="st0" d="M136.87,362.5c-3.88,0-7.52,1.51-10.26,4.25l-44.75,44.75c-2.74,2.74-4.25,6.38-4.25,10.26s1.51,7.52,4.25,10.26c2.74,2.74,6.38,4.25,10.26,4.25s7.52-1.51,10.26-4.25l44.75-44.75c2.74-2.74,4.25-6.38,4.25-10.26s-1.51-7.52-4.25-10.26c-2.74-2.74-6.38-4.25-10.26-4.25h0Z"/>
  <path class="st0" d="M384.74,143.64c3.88,0,7.52-1.51,10.26-4.25l44.76-44.75c2.74-2.74,4.25-6.38,4.25-10.26s-1.51-7.52-4.25-10.26c-2.74-2.74-6.38-4.25-10.26-4.25s-7.52,1.51-10.26,4.25l-44.76,44.75c-2.74,2.74-4.25,6.38-4.25,10.26s1.51,7.52,4.25,10.26c2.74,2.74,6.38,4.25,10.26,4.25h0Z"/>
  <path class="st0" d="M564.25,607.26c-3.43-1.81-7.36-2.17-11.06-1.03-3.7,1.15-6.74,3.66-8.55,7.09l-58.11,110.1c-3.73,7.08-1.02,15.87,6.06,19.6,2.08,1.1,4.42,1.68,6.77,1.68,5.4,0,10.32-2.96,12.83-7.74l58.11-110.11c1.81-3.43,2.17-7.35,1.03-11.05-1.14-3.7-3.66-6.74-7.09-8.54h.01Z"/>
  <path class="st0" d="M656,607.26c-3.43-1.81-7.35-2.18-11.06-1.03-3.7,1.15-6.74,3.66-8.54,7.09l-58.11,110.1c-3.73,7.08-1.02,15.87,6.05,19.6,2.08,1.1,4.42,1.68,6.77,1.68,5.4,0,10.32-2.96,12.83-7.74l58.11-110.11c1.81-3.43,2.17-7.35,1.03-11.05-1.14-3.7-3.66-6.74-7.08-8.54h0Z"/>
  <path class="st0" d="M747.76,607.26c-3.43-1.81-7.35-2.17-11.06-1.03-3.7,1.15-6.74,3.66-8.54,7.09l-58.11,110.1c-3.73,7.08-1.02,15.87,6.05,19.6,2.08,1.1,4.42,1.68,6.77,1.68,5.4,0,10.32-2.96,12.83-7.74l58.11-110.11c1.81-3.43,2.18-7.35,1.03-11.05-1.14-3.7-3.66-6.74-7.09-8.54h0Z"/>
  <path class="st0" d="M807.71,346.07c-19.27-20.73-44.84-34.69-72.49-39.68-3.06-48.49-23.93-93.66-59.14-127.69-36.58-35.36-84.67-54.84-135.43-54.84-63.06,0-123.26,31.51-159.52,82.89-8.62-22.29-23.53-42.15-42.7-56.63-22.51-17-49.35-25.98-77.62-25.98-71.09,0-128.92,57.83-128.92,128.92,0,39.83,18.14,76.84,49.05,101.21-18.05,22.96-27.92,51.41-27.92,80.77,0,53.35,31.9,100.86,81.27,121.05,7.41,3.02,15.89-.54,18.91-7.94,3.03-7.4-.53-15.89-7.94-18.92-38.41-15.71-63.24-52.68-63.24-94.19,0-50.41,36.06-92.66,85.74-100.45,7.44-1.17,12.7-7.72,12.23-15.23-.06-1.02-.09-2.19-.09-3.59,0-42.6,34.65-77.25,77.25-77.25,7.88,0,15.65,1.19,23.08,3.52,6.51,2.05,13.46-.64,16.89-6.54,29.66-50.96,84.66-82.62,143.54-82.62,91.5,0,165.94,74.44,165.94,165.94v.37c0,7.53,5.88,13.88,13.38,14.46,52.52,4.08,93.66,48.62,93.66,101.39,0,56.09-45.63,101.72-101.72,101.72h-201.35c-8,0-14.51,6.51-14.51,14.51s6.51,14.51,14.51,14.51h201.35c72.08,0,130.73-58.65,130.73-130.73,0-33.12-12.41-64.72-34.95-88.97h.01ZM201.5,333.48c-25.53-18.83-40.6-48.45-40.6-80.41,0-55.09,44.82-99.91,99.91-99.91,38.49,0,73.55,22.62,90.01,56.55-25.57,1.5-49.52,12.08-68.01,30.19-18.77,18.39-29.9,42.57-31.67,68.53-18.1,4.66-35.09,13.29-49.63,25.04h0Z"/>
  <path class="st0" d="M494.71,587.76c-2.36-5.11-7.53-8.42-13.17-8.42h-63.58l92.87-152.21c2.73-4.47,2.83-10.09.27-14.65-2.56-4.57-7.41-7.41-12.65-7.41h-118.82c-5.22,0-10.06,2.82-12.63,7.37l-125.86,222.68c-2.53,4.47-2.49,10.01.1,14.45,2.59,4.44,7.39,7.2,12.53,7.2h84.34l-75.64,173.33c-2.86,6.54-.44,14.33,5.62,18.11,2.31,1.44,4.96,2.2,7.67,2.2h0c4.27,0,8.29-1.86,11.05-5.11l205.78-242.04c3.65-4.29,4.48-10.37,2.12-15.48v-.02ZM373.56,648.05c1.96-4.5,1.53-9.64-1.16-13.75s-7.23-6.56-12.14-6.56h-81.64l109.46-193.67h84.51l-92.87,152.21c-2.73,4.47-2.83,10.09-.27,14.65,2.56,4.57,7.41,7.41,12.65,7.41h58.05l-121.8,143.27,45.2-103.57h.01Z"/>
</svg>