<?xml version="1.0" encoding="UTF-8"?>
<svg id="Layer_1" xmlns="http://www.w3.org/2000/svg" version="1.1" viewBox="0 0 850.39 850.39">
  <!-- Generator: Adobe Illustrator 30.4.0, SVG Export Plug-In . SVG Version: 2.1.4 Build 226)  -->
  <defs>
    <style>
      .st0 {
        fill: #8f8f8f;
      }
    </style>
  </defs>
  <path class="st0" d="M425.2,213.59c-116.68,0-211.61,94.93-211.61,211.61s94.93,211.61,211.61,211.61,211.61-94.93,211.61-211.61-94.93-211.61-211.61-211.61ZM425.2,607.26c-100.39,0-182.06-81.67-182.06-182.06s81.67-182.06,182.06-182.06,182.06,81.67,182.06,182.06-81.67,182.06-182.06,182.06Z"/>
  <path class="st0" d="M425.2,138.44c8.15,0,14.78-6.63,14.78-14.78V14.78C439.97,6.63,433.34,0,425.2,0s-14.77,6.63-14.77,14.78v108.89c0,8.15,6.63,14.78,14.77,14.78Z"/>
  <path class="st0" d="M201.53,222.43c2.79,2.79,6.5,4.33,10.45,4.33s7.66-1.54,10.45-4.33c5.76-5.76,5.76-15.14,0-20.9l-77-77c-5.76-5.76-15.13-5.76-20.9,0-5.76,5.76-5.76,15.13,0,20.9l77,77Z"/>
  <path class="st0" d="M138.44,425.2c0-8.15-6.63-14.77-14.78-14.77H14.78C6.63,410.42,0,417.05,0,425.2s6.63,14.78,14.78,14.78h108.89c8.15,0,14.78-6.63,14.78-14.78Z"/>
  <path class="st0" d="M201.53,627.97l-77,77c-5.76,5.76-5.76,15.13,0,20.9,2.79,2.79,6.5,4.33,10.45,4.33s7.66-1.54,10.45-4.33l77-77c5.76-5.76,5.76-15.14,0-20.9-5.76-5.76-15.13-5.76-20.89,0Z"/>
  <path class="st0" d="M425.2,711.96c-8.15,0-14.77,6.63-14.77,14.78v108.89c0,8.15,6.63,14.78,14.77,14.78s14.78-6.63,14.78-14.78v-108.89c0-8.15-6.63-14.78-14.78-14.78Z"/>
  <path class="st0" d="M648.86,627.96c-5.76-5.76-15.13-5.76-20.9,0-5.76,5.76-5.76,15.14,0,20.9l77,77c2.79,2.79,6.5,4.33,10.45,4.33s7.66-1.54,10.45-4.33c5.76-5.76,5.76-15.13,0-20.9l-77-77Z"/>
  <path class="st0" d="M835.62,410.42h-108.89c-8.15,0-14.77,6.63-14.77,14.77s6.63,14.78,14.77,14.78h108.89c8.15,0,14.78-6.63,14.78-14.78s-6.63-14.77-14.78-14.77Z"/>
  <path class="st0" d="M638.41,226.75c3.95,0,7.66-1.54,10.45-4.33l77-77c5.76-5.76,5.76-15.13,0-20.9-5.76-5.76-15.13-5.76-20.89,0l-77,77c-5.76,5.76-5.76,15.14,0,20.9,2.79,2.79,6.5,4.33,10.45,4.33Z"/>
</svg>