<?xml version="1.0" encoding="UTF-8"?>
<svg id="Layer_1" xmlns="http://www.w3.org/2000/svg" version="1.1" viewBox="0 0 850.39 850.39">
  <!-- Generator: Adobe Illustrator 30.4.0, SVG Export Plug-In . SVG Version: 2.1.4 Build 226)  -->
  <defs>
    <style>
      .st0 {
        fill: #8f8f8f;
      }
    </style>
  </defs>
  <path class="st0" d="M776.65,328.44c-6.37-70.84-65.83-125.61-137.57-125.61-39.17,0-76.55,16.85-102.59,45.67-37.17-33.59-84.85-52.01-135.06-52.01-67.33,0-131.48,34.7-168.57,90.87-7.08-1.41-14.31-2.13-21.58-2.13-28.9,0-56.21,11.17-76.89,31.46-19.43,19.06-30.93,44.1-32.72,71-26.58,6.81-50.88,21.85-68.89,42.73C11.64,454.93,0,486.28,0,518.69c0,74.55,60.65,135.21,135.21,135.21h443.7c74.55,0,135.21-60.65,135.21-135.21,0-1.35-.05-2.7-.09-4.04h42.15c51.96,0,94.23-42.27,94.23-94.23,0-43.85-31.35-82.49-73.74-91.98h-.02ZM756.17,485.1h-46.3c-5.54-21.66-16.38-41.73-31.9-58.43-19.97-21.49-46.49-35.95-75.17-41.07-2.65-42.71-18.67-82.93-45.8-115.7,20.53-23.64,50.57-37.52,82.08-37.52,59.87,0,108.58,48.71,108.58,108.58v.25c0,7.67,5.99,14.14,13.63,14.73,33.39,2.59,59.55,30.91,59.55,64.47,0,35.66-29.01,64.68-64.68,64.68h0ZM578.91,624.35H135.21c-58.26,0-105.66-47.4-105.66-105.66,0-52.36,37.46-96.25,89.06-104.35,7.59-1.19,12.94-7.87,12.45-15.54-.07-1.02-.1-2.24-.1-3.72,0-44.28,36.02-80.3,80.3-80.3,8.2,0,16.27,1.23,24,3.66,6.63,2.08,13.71-.65,17.2-6.66,30.78-52.89,87.86-85.74,148.96-85.74,94.96,0,172.21,77.25,172.21,172.21v.38c0,7.67,5.99,14.14,13.63,14.73,54.56,4.24,97.29,50.5,97.29,105.32,0,58.26-47.4,105.66-105.66,105.66h.02Z"/>
</svg>