<?xml version="1.0" encoding="UTF-8"?>
<svg id="Layer_1" xmlns="http://www.w3.org/2000/svg" version="1.1" viewBox="0 0 850.39 850.39">
  <!-- Generator: Adobe Illustrator 30.4.0, SVG Export Plug-In . SVG Version: 2.1.4 Build 226)  -->
  <defs>
    <style>
      .st0 {
        fill: #8e8e8e;
      }
    </style>
  </defs>
  <path class="st0" d="M799.53,259.09c4.24-15.81,2.06-32.32-6.12-46.49-8.18-14.17-21.39-24.31-37.19-28.55-15.83-4.25-32.34-2.07-46.5,6.13l-223.26,128.9V61.26C486.45,27.49,458.96,0,425.18,0s-61.26,27.49-61.26,61.26v257.81l-223.27-128.9c-14.19-8.19-30.69-10.38-46.52-6.13-15.8,4.24-29.01,14.38-37.18,28.55-16.89,29.26-6.83,66.8,22.43,83.7l223.27,128.91-223.27,128.9c-29.26,16.89-39.31,54.44-22.43,83.69,10.91,18.9,31.26,30.64,53.1,30.64,10.71,0,21.29-2.84,30.6-8.21l223.27-128.9v257.8c0,33.79,27.48,61.27,61.26,61.27s61.27-27.49,61.27-61.27v-257.8l223.26,128.89c9.31,5.38,19.89,8.22,30.61,8.22,21.84,0,42.19-11.74,53.09-30.64,8.18-14.17,10.36-30.68,6.12-46.49-4.23-15.81-14.37-29.02-28.55-37.2l-223.27-128.91,223.27-128.9c14.17-8.18,24.32-21.4,28.55-37.2Z"/>
</svg>