<?xml version="1.0" encoding="UTF-8"?>
<svg id="Layer_1" xmlns="http://www.w3.org/2000/svg" version="1.1" viewBox="0 0 850.39 850.39">
  <!-- Generator: Adobe Illustrator 30.4.0, SVG Export Plug-In . SVG Version: 2.1.4 Build 226)  -->
  <defs>
    <style>
      .st0 {
        fill: #8f8f8f;
      }
    </style>
  </defs>
  <path class="st0" d="M14.78,429.07h665.66c.58,0,1.14-.04,1.71-.11,93.3-3.07,168.25-79.91,168.25-173.94s-78.07-174.04-174.04-174.04-174.04,78.08-174.04,174.04c0,8.15,6.63,14.77,14.77,14.77s14.78-6.63,14.78-14.77c0-79.67,64.82-144.49,144.49-144.49s144.49,64.82,144.49,144.49-64.82,144.49-144.49,144.49H14.78c-8.15,0-14.78,6.64-14.78,14.79s6.63,14.78,14.78,14.78h0Z"/>
  <path class="st0" d="M14.78,320.24h318.16c.57,0,1.13-.04,1.68-.1,57.33-2.14,103.32-49.42,103.32-107.27s-48.17-107.37-107.37-107.37-107.37,48.17-107.37,107.37c0,8.15,6.63,14.77,14.77,14.77s14.78-6.63,14.78-14.77c0-42.91,34.91-77.82,77.82-77.82s77.82,34.91,77.82,77.82-34.91,77.82-77.82,77.82H14.78c-8.15,0-14.78,6.62-14.78,14.77s6.63,14.78,14.78,14.78Z"/>
  <path class="st0" d="M678.33,514.04c-.59-.07-1.18-.12-1.79-.12H18.86c-8.15,0-14.78,6.63-14.78,14.77s6.63,14.78,14.78,14.78h654.78c54.15,0,98.2,44.05,98.2,98.2s-44.05,98.19-98.2,98.19-98.19-44.05-98.19-98.19c0-8.15-6.63-14.78-14.78-14.78s-14.77,6.63-14.77,14.78c0,70.44,57.31,127.74,127.74,127.74s127.75-57.31,127.75-127.74-54.79-125.15-123.06-127.63h0Z"/>
</svg>