<?xml version="1.0" encoding="UTF-8"?>
<svg id="Layer_1" xmlns="http://www.w3.org/2000/svg" version="1.1" viewBox="0 0 850.39 850.39">
  <!-- Generator: Adobe Illustrator 30.4.0, SVG Export Plug-In . SVG Version: 2.1.4 Build 226)  -->
  <defs>
    <style>
      .st0 {
        fill: #8f8f8f;
      }
    </style>
  </defs>
  <path class="st0" d="M807.84,305.28c-24.07-25.91-56.13-43.08-90.79-48.74-3.15-60.15-28.64-116.28-72.12-158.58-44.9-43.68-104.05-67.73-166.54-67.73-80.51,0-156.99,41.76-200.77,109.31-8.91-1.93-18.05-2.9-27.25-2.9-68.56,0-125.19,54.37-128.62,122.25-32.12,7.76-61.5,25.67-83.19,50.82C13.7,338.55,0,375.46,0,413.62c0,87.77,71.41,159.18,159.18,159.18h38.64c8.15,0,14.78-6.63,14.78-14.78s-6.63-14.78-14.78-14.78h-38.64c-71.48,0-129.63-58.15-129.63-129.63,0-64.25,45.96-118.09,109.28-128.03,7.58-1.19,12.93-7.86,12.46-15.51-.08-1.34-.12-2.87-.12-4.67,0-54.72,44.51-99.23,99.23-99.23,10.13,0,20.11,1.52,29.65,4.52,6.62,2.09,13.71-.65,17.21-6.66,37.43-64.32,106.85-104.27,181.16-104.27,115.48,0,209.44,93.95,209.44,209.44v.46c0,7.67,5.99,14.14,13.63,14.73,66.94,5.2,119.38,61.96,119.38,129.22,0,71.48-58.15,129.63-129.63,129.63h-99.44c-8.15,0-14.78,6.63-14.78,14.78s6.63,14.78,14.78,14.78h99.44c87.77,0,159.18-71.41,159.18-159.18,0-40.33-15.11-78.81-42.55-108.34h-.03Z"/>
  <path class="st0" d="M239.49,396.48c2.63,4.56,7.54,7.39,12.81,7.39,2.58,0,5.13-.69,7.38-1.98l53.84-31.09v62.17c0,8.15,6.63,14.77,14.78,14.77s14.77-6.63,14.77-14.77v-62.17l53.84,31.08c2.25,1.3,4.8,1.98,7.38,1.98,5.27,0,10.17-2.83,12.8-7.39,1.97-3.42,2.5-7.4,1.48-11.21s-3.47-7-6.88-8.97l-53.84-31.09,53.84-31.09c3.42-1.97,5.86-5.16,6.88-8.97,1.02-3.81.5-7.79-1.48-11.21-1.97-3.42-5.16-5.86-8.97-6.88-3.81-1.02-7.8-.5-11.21,1.48l-53.84,31.08v-62.17c0-8.15-6.63-14.78-14.77-14.78s-14.78,6.63-14.78,14.78v62.17l-53.84-31.09c-3.42-1.97-7.4-2.5-11.21-1.48-3.81,1.02-7,3.47-8.97,6.88-4.07,7.06-1.65,16.11,5.41,20.18l53.84,31.09-53.84,31.09c-7.06,4.07-9.48,13.13-5.41,20.18v.02Z"/>
  <path class="st0" d="M376.77,677.58c1.02-3.81.5-7.79-1.48-11.21-1.97-3.42-5.16-5.86-8.97-6.88-3.82-1.02-7.8-.5-11.21,1.48l-53.84,31.09v-62.17c0-8.15-6.63-14.77-14.78-14.77s-14.77,6.63-14.77,14.77v62.17l-53.84-31.09c-3.42-1.97-7.4-2.5-11.21-1.48-3.81,1.02-7,3.47-8.97,6.88-4.07,7.05-1.65,16.11,5.41,20.18l53.84,31.09-53.84,31.09c-7.06,4.07-9.48,13.13-5.41,20.18,2.63,4.56,7.54,7.39,12.81,7.39,2.58,0,5.14-.68,7.38-1.98l53.84-31.08v62.17c0,8.15,6.63,14.77,14.77,14.77s14.78-6.63,14.78-14.77v-62.17l53.84,31.09c2.25,1.3,4.8,1.98,7.38,1.98,5.27,0,10.17-2.83,12.8-7.39,1.97-3.42,2.5-7.4,1.48-11.21s-3.47-7-6.88-8.97l-53.84-31.09,53.84-31.09c3.42-1.97,5.86-5.16,6.88-8.97h-.01Z"/>
  <path class="st0" d="M543.97,506.57c1.02-3.81.5-7.79-1.48-11.21-1.97-3.42-5.16-5.86-8.97-6.89-3.82-1.02-7.8-.5-11.21,1.48l-53.84,31.08v-62.17c0-8.15-6.63-14.77-14.78-14.77s-14.77,6.63-14.77,14.77v62.17l-53.84-31.08c-3.42-1.98-7.4-2.5-11.22-1.48-3.81,1.02-7,3.47-8.97,6.88-4.07,7.06-1.65,16.11,5.41,20.18l53.84,31.09-53.84,31.08c-7.06,4.07-9.48,13.13-5.41,20.18,2.63,4.56,7.54,7.39,12.81,7.39,2.58,0,5.13-.69,7.38-1.98l53.84-31.09v62.17c0,8.15,6.63,14.78,14.77,14.78s14.78-6.63,14.78-14.78v-62.17l53.84,31.08c2.25,1.3,4.8,1.98,7.38,1.98,5.27,0,10.17-2.83,12.8-7.39,1.97-3.42,2.5-7.4,1.48-11.21s-3.47-7-6.88-8.97l-53.84-31.09,53.84-31.08c3.42-1.97,5.86-5.16,6.88-8.97v.02Z"/>
</svg>