<?xml version="1.0" encoding="UTF-8"?>
<svg id="Layer_1" xmlns="http://www.w3.org/2000/svg" version="1.1" viewBox="0 0 850.39 850.39">
  <!-- Generator: Adobe Illustrator 30.4.0, SVG Export Plug-In . SVG Version: 2.1.4 Build 226)  -->
  <defs>
    <style>
      .st0 {
        fill: #8f8f8f;
      }
    </style>
  </defs>
  <path class="st0" d="M799.33,268.93c-23.54-25.33-54.88-42.12-88.77-47.66-3.08-58.81-28-113.69-70.52-155.05C596.14,23.52,538.31,0,477.22,0,398.5,0,323.72,40.83,280.92,106.87c-8.71-1.88-17.65-2.84-26.64-2.84-67.03,0-122.41,53.16-125.75,119.53-31.4,7.58-60.13,25.1-81.33,49.69-24.33,28.21-37.73,64.3-37.73,101.6,0,24.68,5.61,48.28,16.67,70.15,1.74,3.45,4.72,6.01,8.39,7.21,3.67,1.21,7.59.91,11.02-.83,3.44-1.74,6-4.72,7.21-8.38,1.2-3.67.91-7.58-.83-11.02-9-17.8-13.56-37.02-13.56-57.12,0-62.82,44.93-115.46,106.84-125.18,7.41-1.16,12.65-7.68,12.18-15.17-.08-1.31-.12-2.8-.12-4.56,0-53.5,43.52-97.02,97.02-97.02,9.9,0,19.66,1.49,28.99,4.42,6.49,2.04,13.4-.63,16.82-6.51,36.6-62.88,104.47-101.95,177.12-101.95,112.91,0,204.77,91.86,204.77,204.78v.45c0,7.5,5.86,13.82,13.33,14.4,65.45,5.08,116.72,60.58,116.72,126.35,0,49.69-29.26,95.05-74.54,115.54-7.26,3.29-10.49,11.86-7.2,19.12,2.33,5.16,7.5,8.49,13.17,8.49,2.06,0,4.06-.43,5.95-1.28,55.6-25.16,91.52-80.84,91.52-141.86,0-39.44-14.78-77.06-41.6-105.93v-.02Z"/>
  <path class="st0" d="M24.84,554.49h271.18c.51,0,1.02-.03,1.51-.08,42.27-1.67,76.15-36.57,76.15-79.25s-35.59-79.33-79.33-79.33-79.33,35.59-79.33,79.33c0,7.97,6.48,14.45,14.45,14.45s14.45-6.48,14.45-14.45c0-27.81,22.63-50.44,50.44-50.44s50.44,22.63,50.44,50.44-22.63,50.44-50.44,50.44H24.84c-7.97,0-14.45,6.48-14.45,14.45s6.48,14.45,14.45,14.45h0Z"/>
  <path class="st0" d="M153.49,481.26H24.84c-7.97,0-14.45,6.48-14.45,14.45s6.48,14.45,14.45,14.45h129.61c.33,0,.65-.03.97-.05,27.87-1.02,50.23-24,50.23-52.12s-23.4-52.17-52.17-52.17-52.17,23.4-52.17,52.17c0,7.97,6.48,14.45,14.45,14.45s14.45-6.48,14.45-14.45c0-12.83,10.44-23.28,23.28-23.28s23.28,10.44,23.28,23.28-10.44,23.28-23.28,23.28h0Z"/>
  <path class="st0" d="M295.62,572.27c-.39-.03-.79-.06-1.18-.06H26.5c-7.97,0-14.45,6.48-14.45,14.45s6.48,14.45,14.45,14.45h266.75c17.41,0,31.58,14.17,31.58,31.58s-14.17,31.58-31.58,31.58-31.58-14.17-31.58-31.58c0-7.97-6.48-14.45-14.45-14.45s-14.45,6.48-14.45,14.45c0,33.34,27.13,60.47,60.47,60.47s60.47-27.13,60.47-60.47-25.86-59.16-58.11-60.41h.02Z"/>
  <path class="st0" d="M407.53,425.17c-1,3.73-.49,7.62,1.44,10.96,2.57,4.46,7.37,7.23,12.52,7.23,2.53,0,5.02-.67,7.22-1.94l52.64-30.39v60.79c0,7.97,6.48,14.45,14.45,14.45s14.45-6.48,14.45-14.45v-60.79l52.64,30.39c2.2,1.27,4.69,1.94,7.22,1.94,5.15,0,9.95-2.77,12.52-7.22,1.93-3.34,2.44-7.24,1.44-10.96-1-3.73-3.39-6.84-6.73-8.77l-52.64-30.39,52.64-30.39c3.34-1.93,5.73-5.05,6.73-8.77,1-3.73.49-7.62-1.44-10.96s-5.04-5.73-8.77-6.73c-3.73-1-7.62-.49-10.96,1.44l-52.64,30.39v-60.79c0-7.96-6.48-14.45-14.45-14.45s-14.45,6.48-14.45,14.45v60.79l-52.64-30.39c-3.35-1.93-7.24-2.45-10.97-1.45s-6.84,3.39-8.77,6.73-2.44,7.24-1.44,10.96c1,3.73,3.39,6.84,6.73,8.77l52.64,30.39-52.64,30.39c-3.34,1.93-5.73,5.05-6.73,8.77h0Z"/>
  <path class="st0" d="M543.19,710.97c1-3.73.49-7.62-1.44-10.96s-5.05-5.73-8.77-6.73c-3.73-1-7.63-.49-10.97,1.45l-52.64,30.39v-60.79c0-7.97-6.48-14.45-14.45-14.45s-14.45,6.48-14.45,14.45v60.79l-52.64-30.39c-3.34-1.94-7.24-2.45-10.97-1.45s-6.84,3.39-8.77,6.73c-1.93,3.34-2.44,7.23-1.44,10.96,1,3.73,3.39,6.84,6.73,8.77l52.64,30.39-52.64,30.4c-6.9,3.98-9.27,12.83-5.29,19.73,2.57,4.46,7.37,7.23,12.52,7.23,2.53,0,5.02-.67,7.22-1.94l52.64-30.39v60.79c0,7.97,6.48,14.45,14.45,14.45s14.45-6.48,14.45-14.45v-60.79l52.64,30.39c2.19,1.27,4.69,1.94,7.22,1.94,5.15,0,9.95-2.77,12.52-7.23,3.98-6.9,1.61-15.75-5.29-19.73l-52.64-30.4,52.64-30.39c3.34-1.93,5.73-5.04,6.73-8.77h0Z"/>
  <path class="st0" d="M705.23,532.81c-1.93-3.35-5.05-5.74-8.78-6.74-3.73-1-7.62-.48-10.95,1.45l-52.64,30.39v-60.79c0-7.97-6.48-14.45-14.45-14.45s-14.45,6.48-14.45,14.45v60.79l-52.64-30.39c-3.34-1.93-7.24-2.45-10.97-1.45s-6.85,3.39-8.77,6.73c-3.98,6.9-1.61,15.75,5.29,19.73l52.64,30.39-52.64,30.39c-6.9,3.98-9.27,12.83-5.29,19.73,2.57,4.46,7.37,7.23,12.52,7.23,2.53,0,5.02-.67,7.22-1.94l52.64-30.39v60.79c0,7.97,6.48,14.45,14.45,14.45s14.45-6.48,14.45-14.45v-60.79l52.64,30.39c2.19,1.27,4.69,1.94,7.22,1.94,5.15,0,9.95-2.77,12.52-7.22,3.98-6.9,1.61-15.75-5.29-19.73l-52.64-30.39,52.64-30.39c6.9-3.98,9.27-12.84,5.29-19.73h0Z"/>
</svg>