<?xml version="1.0" encoding="UTF-8"?>
<svg id="Layer_1" xmlns="http://www.w3.org/2000/svg" version="1.1" viewBox="0 0 850.39 850.39">
  <!-- Generator: Adobe Illustrator 30.4.0, SVG Export Plug-In . SVG Version: 2.1.4 Build 226)  -->
  <defs>
    <style>
      .st0 {
        fill: #8f8f8f;
      }
    </style>
  </defs>
  <path class="st0" d="M500.92,640.14c-3.49-1.84-7.49-2.21-11.26-1.05-3.77,1.17-6.86,3.73-8.7,7.22l-72.2,136.81c-3.8,7.2-1.04,16.16,6.17,19.97,2.12,1.12,4.5,1.71,6.89,1.71,5.5,0,10.51-3.02,13.07-7.88l72.2-136.81c3.8-7.2,1.04-16.16-6.17-19.96h0Z"/>
  <path class="st0" d="M614.92,640.14c-3.49-1.84-7.49-2.21-11.26-1.05-3.77,1.17-6.86,3.73-8.7,7.22l-72.2,136.81c-3.8,7.2-1.04,16.16,6.17,19.97,2.12,1.12,4.5,1.71,6.89,1.71,5.5,0,10.51-3.02,13.07-7.88l72.2-136.81c3.8-7.2,1.04-16.16-6.17-19.96h0Z"/>
  <path class="st0" d="M728.93,640.14c-3.49-1.84-7.49-2.21-11.26-1.05-3.77,1.17-6.86,3.73-8.7,7.22l-72.2,136.81c-3.8,7.2-1.04,16.16,6.17,19.97,2.12,1.12,4.5,1.71,6.89,1.71,5.5,0,10.51-3.02,13.07-7.88l72.2-136.81c3.8-7.2,1.03-16.16-6.17-19.96h0Z"/>
  <path class="st0" d="M808.26,320.66c-24.07-25.91-56.13-43.08-90.79-48.75-3.15-60.15-28.64-116.28-72.12-158.58-44.9-43.68-104.05-67.73-166.53-67.73-80.51,0-156.99,41.76-200.77,109.31-8.91-1.93-18.06-2.9-27.25-2.9-68.56,0-125.19,54.37-128.62,122.25-32.12,7.76-61.5,25.67-83.19,50.82C14.12,353.93.42,390.84.42,429c0,25.24,5.74,49.38,17.05,71.75,1.78,3.52,4.83,6.14,8.58,7.38,3.75,1.23,7.75.93,11.28-.85,3.52-1.78,6.14-4.83,7.37-8.58s.93-7.75-.85-11.28c-9.2-18.2-13.87-37.86-13.87-58.42,0-64.25,45.96-118.09,109.28-128.02,7.58-1.19,12.93-7.86,12.46-15.52-.08-1.34-.12-2.87-.12-4.67,0-54.72,44.51-99.23,99.23-99.23,10.13,0,20.11,1.52,29.65,4.52,6.62,2.08,13.7-.65,17.2-6.66,37.43-64.32,106.85-104.27,181.16-104.27,115.48,0,209.44,93.95,209.44,209.44v.46c0,7.67,5.99,14.14,13.63,14.73,66.94,5.2,119.37,61.96,119.37,129.22,0,71.48-58.15,129.63-129.63,129.63h-282.48c-8.15,0-14.77,6.63-14.77,14.78s6.63,14.77,14.77,14.77h282.48c87.77,0,159.18-71.41,159.18-159.18,0-40.33-15.11-78.81-42.55-108.34h-.02Z"/>
  <path class="st0" d="M291.8,450.44c-44.74,0-81.14,36.4-81.14,81.14,0,8.15,6.63,14.78,14.77,14.78s14.78-6.63,14.78-14.78c0-28.44,23.14-51.59,51.59-51.59s51.59,23.14,51.59,51.59-23.14,51.59-51.59,51.59H16.15c-8.15,0-14.77,6.63-14.77,14.77s6.63,14.78,14.77,14.78h277.36c.52,0,1.04-.03,1.55-.08,43.24-1.71,77.89-37.4,77.89-81.05s-36.4-81.14-81.14-81.14h0Z"/>
  <path class="st0" d="M147.72,537.82H16.15c-8.15,0-14.77,6.63-14.77,14.78s6.63,14.77,14.77,14.77h132.56c.33,0,.66-.03.99-.05,28.51-1.05,51.38-24.55,51.38-53.31s-23.94-53.36-53.36-53.36-53.36,23.94-53.36,53.36c0,8.15,6.63,14.77,14.77,14.77s14.78-6.63,14.78-14.77c0-13.13,10.68-23.81,23.81-23.81s23.81,10.68,23.81,23.81-10.68,23.81-23.81,23.81h0Z"/>
  <path class="st0" d="M293.09,630.89c-.4-.03-.8-.06-1.21-.06H17.85c-8.15,0-14.78,6.63-14.78,14.78s6.63,14.77,14.78,14.77h272.83c17.81,0,32.3,14.49,32.3,32.3s-14.49,32.29-32.3,32.29-32.3-14.49-32.3-32.29c0-8.15-6.63-14.78-14.77-14.78s-14.78,6.63-14.78,14.78c0,34.1,27.74,61.84,61.85,61.84s61.85-27.74,61.85-61.84-26.44-60.51-59.43-61.79h-.01Z"/>
</svg>