<?xml version="1.0" encoding="UTF-8"?>
<svg id="Layer_1" xmlns="http://www.w3.org/2000/svg" version="1.1" viewBox="0 0 850.39 850.39">
  <!-- Generator: Adobe Illustrator 30.4.0, SVG Export Plug-In . SVG Version: 2.1.4 Build 226)  -->
  <defs>
    <style>
      .st0 {
        fill: #8f8f8f;
      }
    </style>
  </defs>
  <path class="st0" d="M498.63,558.08c-6.99-3.68-15.67-1-19.36,5.98l-70.01,132.66c-3.69,6.99-1,15.67,5.98,19.36,2.06,1.08,4.37,1.66,6.68,1.66,5.33,0,10.19-2.93,12.68-7.64l70.01-132.66c3.69-6.99,1-15.67-5.98-19.36h0Z"/>
  <path class="st0" d="M557.59,690.74c-6.98-3.68-15.66-1-19.35,5.98l-70.01,132.66c-3.69,6.99-1,15.67,5.98,19.36,2.05,1.08,4.37,1.66,6.68,1.66,5.33,0,10.19-2.93,12.68-7.64l70.01-132.66c3.69-6.99,1-15.67-5.99-19.36Z"/>
  <path class="st0" d="M723.41,569.14c-6.98-3.68-15.67-1-19.36,5.98l-70.01,132.66c-3.69,6.99-1,15.67,5.98,19.36,2.05,1.08,4.36,1.66,6.68,1.66,5.33,0,10.19-2.93,12.68-7.64l70.01-132.66c3.69-6.99,1-15.67-5.98-19.36Z"/>
  <path class="st0" d="M796.66,266.71c-23.34-25.12-54.43-41.77-88.03-47.27-3.06-58.33-27.77-112.75-69.93-153.77C595.15,23.33,537.8,0,477.2,0,399.14,0,324.98,40.49,282.53,105.99c-8.64-1.87-17.51-2.81-26.42-2.81-66.48,0-121.39,52.72-124.71,118.54-31.14,7.52-59.63,24.89-80.66,49.28-24.13,27.98-37.42,63.76-37.42,100.77,0,24.47,5.56,47.88,16.53,69.58,1.73,3.42,4.68,5.96,8.32,7.15s7.52.9,10.93-.83c3.42-1.73,5.95-4.68,7.15-8.32,1.19-3.64.9-7.52-.83-10.93-8.92-17.65-13.45-36.71-13.45-56.65,0-62.3,44.56-114.51,105.96-124.14,7.35-1.15,12.54-7.62,12.08-15.04-.08-1.3-.12-2.78-.12-4.53,0-53.06,43.16-96.22,96.22-96.22,9.82,0,19.49,1.48,28.75,4.39,6.44,2.03,13.29-.63,16.68-6.46,36.3-62.37,103.6-101.11,175.66-101.11,111.98,0,203.08,91.1,203.08,203.08v.44c0,7.43,5.81,13.71,13.22,14.28,64.91,5.04,115.75,60.08,115.75,125.3,0,69.31-56.39,125.7-125.7,125.7h-273.91c-7.9,0-14.33,6.43-14.33,14.33s6.43,14.33,14.33,14.33h273.91c85.11,0,154.35-69.24,154.35-154.35,0-39.11-14.65-76.42-41.26-105.05h.02Z"/>
  <path class="st0" d="M295.86,392.56c-43.38,0-78.68,35.29-78.68,78.68,0,7.9,6.43,14.33,14.33,14.33s14.33-6.43,14.33-14.33c0-27.58,22.44-50.02,50.02-50.02s50.02,22.44,50.02,50.02-22.44,50.02-50.02,50.02H28.57c-7.9,0-14.33,6.43-14.33,14.33s6.43,14.33,14.33,14.33h268.94c.51,0,1.01-.03,1.5-.08,41.93-1.66,75.53-36.27,75.53-78.6s-35.29-78.68-78.68-78.68h0Z"/>
  <path class="st0" d="M156.15,477.29H28.57c-7.9,0-14.33,6.43-14.33,14.33s6.43,14.33,14.33,14.33h128.54c.32,0,.64-.03.96-.05,27.64-1.02,49.82-23.81,49.82-51.69s-23.21-51.74-51.74-51.74-51.74,23.21-51.74,51.74c0,7.9,6.43,14.33,14.33,14.33s14.33-6.43,14.33-14.33c0-12.73,10.36-23.09,23.09-23.09s23.09,10.36,23.09,23.09-10.36,23.09-23.09,23.09h0Z"/>
  <path class="st0" d="M297.11,567.54c-.39-.03-.78-.06-1.17-.06H30.22c-7.9,0-14.33,6.43-14.33,14.33s6.43,14.33,14.33,14.33h264.55c17.27,0,31.32,14.05,31.32,31.32s-14.05,31.31-31.32,31.31-31.32-14.05-31.32-31.31c0-7.9-6.43-14.33-14.33-14.33s-14.33,6.43-14.33,14.33c0,33.07,26.9,59.97,59.97,59.97s59.97-26.9,59.97-59.97-25.64-58.67-57.62-59.91h0Z"/>
</svg>