<?xml version="1.0" encoding="UTF-8"?>
<svg id="Layer_1" xmlns="http://www.w3.org/2000/svg" version="1.1" viewBox="0 0 850.39 850.39">
  <!-- Generator: Adobe Illustrator 30.4.0, SVG Export Plug-In . SVG Version: 2.1.4 Build 226)  -->
  <defs>
    <style>
      .st0 {
        fill: #8f8f8f;
      }
    </style>
  </defs>
  <path class="st0" d="M618.08,673.78c1.02-3.81.5-7.79-1.48-11.21-1.97-3.42-5.16-5.87-8.98-6.89-3.82-1.03-7.79-.5-11.2,1.48l-53.84,31.09v-62.17c0-8.15-6.63-14.78-14.78-14.78s-14.78,6.63-14.78,14.78v62.17l-53.84-31.08c-3.42-1.98-7.41-2.5-11.22-1.48s-6.99,3.47-8.97,6.88c-1.97,3.42-2.5,7.4-1.48,11.21s3.47,7,6.88,8.97l53.84,31.09-53.84,31.08c-3.42,1.97-5.86,5.16-6.88,8.97-1.02,3.81-.5,7.79,1.48,11.21,2.63,4.56,7.54,7.39,12.81,7.39,2.59,0,5.14-.69,7.38-1.98l53.84-31.08v62.17c0,8.15,6.63,14.77,14.78,14.77s14.78-6.63,14.78-14.77v-62.17l53.84,31.08c2.24,1.3,4.8,1.98,7.38,1.98,5.27,0,10.17-2.83,12.8-7.39,1.97-3.42,2.5-7.4,1.48-11.21s-3.47-7-6.88-8.97l-53.84-31.08,53.84-31.09c3.42-1.97,5.86-5.16,6.88-8.97Z"/>
  <path class="st0" d="M807.84,309.08c-24.07-25.9-56.13-43.08-90.79-48.74-3.15-60.15-28.64-116.28-72.12-158.58-44.9-43.68-104.05-67.73-166.53-67.73-80.51,0-156.99,41.76-200.77,109.31-8.91-1.93-18.06-2.9-27.25-2.9-68.56,0-125.19,54.37-128.62,122.25-32.12,7.76-61.5,25.67-83.19,50.82C13.7,342.35,0,379.26,0,417.42c0,25.24,5.74,49.38,17.05,71.75,1.78,3.52,4.83,6.14,8.58,7.37,3.75,1.23,7.76.93,11.28-.85s6.14-4.83,7.37-8.58.93-7.75-.85-11.27c-9.2-18.2-13.87-37.86-13.87-58.42,0-64.25,45.96-118.09,109.28-128.03,7.58-1.19,12.93-7.86,12.46-15.51-.08-1.34-.12-2.87-.12-4.67,0-54.72,44.51-99.23,99.23-99.23,10.13,0,20.11,1.52,29.65,4.52,6.63,2.09,13.71-.65,17.21-6.66,37.43-64.31,106.85-104.27,181.16-104.27,115.48,0,209.44,93.95,209.44,209.44v.45c0,7.67,5.99,14.14,13.63,14.73,66.94,5.2,119.37,61.96,119.37,129.22,0,71.48-58.15,129.63-129.63,129.63h-282.48c-8.15,0-14.77,6.63-14.77,14.78s6.63,14.77,14.77,14.77h282.48c87.77,0,159.18-71.41,159.18-159.18,0-40.33-15.11-78.81-42.55-108.34h-.03Z"/>
  <path class="st0" d="M291.38,438.86c-44.74,0-81.14,36.4-81.14,81.14,0,8.15,6.63,14.78,14.77,14.78s14.78-6.63,14.78-14.78c0-28.44,23.14-51.59,51.59-51.59s51.59,23.14,51.59,51.59-23.14,51.59-51.59,51.59H15.73c-8.15,0-14.77,6.63-14.77,14.78s6.63,14.78,14.77,14.78h277.36c.52,0,1.04-.03,1.55-.08,43.24-1.71,77.89-37.4,77.89-81.05s-36.4-81.14-81.14-81.14v-.02Z"/>
  <path class="st0" d="M147.3,526.24H15.73c-8.15,0-14.77,6.63-14.77,14.78s6.63,14.78,14.77,14.78h132.56c.33,0,.66-.03.99-.05,28.51-1.05,51.38-24.55,51.38-53.31s-23.94-53.36-53.36-53.36-53.36,23.94-53.36,53.36c0,8.15,6.63,14.78,14.77,14.78s14.78-6.63,14.78-14.78c0-13.13,10.68-23.81,23.81-23.81s23.81,10.68,23.81,23.81-10.68,23.81-23.81,23.81h0Z"/>
  <path class="st0" d="M292.67,619.31c-.4-.03-.8-.06-1.21-.06H17.43c-8.15,0-14.78,6.63-14.78,14.78s6.63,14.78,14.78,14.78h272.83c17.81,0,32.3,14.49,32.3,32.29s-14.49,32.3-32.3,32.3-32.3-14.49-32.3-32.3c0-8.15-6.63-14.78-14.77-14.78s-14.78,6.63-14.78,14.78c0,34.1,27.74,61.85,61.85,61.85s61.85-27.74,61.85-61.85-26.44-60.51-59.43-61.78h0Z"/>
</svg>